<svg width="1600" height="728" viewBox="0 0 1600 728" fill="none" xmlns="http://www.w3.org/2000/svg">
<path d="M0 725.75C0 726.855 0.89543 727.75 2 727.75C3.10457 727.75 4 726.855 4 725.75H0ZM6.00769 4C7.11226 4 8.00769 3.10457 8.00769 2C8.00769 0.89543 7.11226 0 6.00769 0V4ZM18.0308 0C16.9262 0 16.0308 0.89543 16.0308 2C16.0308 3.10457 16.9262 4 18.0308 4V0ZM26.0462 4C27.1507 4 28.0462 3.10457 28.0462 2C28.0462 0.89543 27.1507 0 26.0462 0V4ZM38.0692 0C36.9647 0 36.0692 0.89543 36.0692 2C36.0692 3.10457 36.9647 4 38.0692 4V0ZM46.0846 4C47.1892 4 48.0846 3.10457 48.0846 2C48.0846 0.89543 47.1892 0 46.0846 0V4ZM58.1077 0C57.0031 0 56.1077 0.89543 56.1077 2C56.1077 3.10457 57.0031 4 58.1077 4V0ZM66.1231 4C67.2276 4 68.1231 3.10457 68.1231 2C68.1231 0.89543 67.2276 0 66.1231 0V4ZM78.1462 0C77.0416 0 76.1462 0.89543 76.1462 2C76.1462 3.10457 77.0416 4 78.1462 4V0ZM86.1615 4C87.2661 4 88.1615 3.10457 88.1615 2C88.1615 0.89543 87.2661 0 86.1615 0V4ZM98.1846 0C97.0801 0 96.1846 0.89543 96.1846 2C96.1846 3.10457 97.0801 4 98.1846 4V0ZM106.2 4C107.305 4 108.2 3.10457 108.2 2C108.2 0.89543 107.305 0 106.2 0V4ZM118.223 0C117.119 0 116.223 0.89543 116.223 2C116.223 3.10457 117.119 4 118.223 4V0ZM126.238 4C127.343 4 128.238 3.10457 128.238 2C128.238 0.89543 127.343 0 126.238 0V4ZM138.262 0C137.157 0 136.262 0.89543 136.262 2C136.262 3.10457 137.157 4 138.262 4V0ZM146.277 4C147.382 4 148.277 3.10457 148.277 2C148.277 0.89543 147.382 0 146.277 0V4ZM158.3 0C157.195 0 156.3 0.89543 156.3 2C156.3 3.10457 157.195 4 158.3 4V0ZM166.315 4C167.42 4 168.315 3.10457 168.315 2C168.315 0.89543 167.42 0 166.315 0V4ZM178.338 0C177.234 0 176.338 0.89543 176.338 2C176.338 3.10457 177.234 4 178.338 4V0ZM186.354 4C187.458 4 188.354 3.10457 188.354 2C188.354 0.89543 187.458 0 186.354 0V4ZM198.377 0C197.272 0 196.377 0.89543 196.377 2C196.377 3.10457 197.272 4 198.377 4V0ZM206.392 4C207.497 4 208.392 3.10457 208.392 2C208.392 0.89543 207.497 0 206.392 0V4ZM218.415 0C217.311 0 216.415 0.89543 216.415 2C216.415 3.10457 217.311 4 218.415 4V0ZM226.431 4C227.535 4 228.431 3.10457 228.431 2C228.431 0.89543 227.535 0 226.431 0V4ZM238.454 0C237.349 0 236.454 0.89543 236.454 2C236.454 3.10457 237.349 4 238.454 4V0ZM246.469 4C247.574 4 248.469 3.10457 248.469 2C248.469 0.89543 247.574 0 246.469 0V4ZM258.492 0C257.388 0 256.492 0.89543 256.492 2C256.492 3.10457 257.388 4 258.492 4V0ZM266.508 4C267.612 4 268.508 3.10457 268.508 2C268.508 0.89543 267.612 0 266.508 0V4ZM278.531 0C277.426 0 276.531 0.89543 276.531 2C276.531 3.10457 277.426 4 278.531 4V0ZM286.546 4C287.651 4 288.546 3.10457 288.546 2C288.546 0.89543 287.651 0 286.546 0V4ZM298.569 0C297.465 0 296.569 0.89543 296.569 2C296.569 3.10457 297.465 4 298.569 4V0ZM306.585 4C307.689 4 308.585 3.10457 308.585 2C308.585 0.89543 307.689 0 306.585 0V4ZM318.608 0C317.503 0 316.608 0.89543 316.608 2C316.608 3.10457 317.503 4 318.608 4V0ZM326.623 4C327.728 4 328.623 3.10457 328.623 2C328.623 0.89543 327.728 0 326.623 0V4ZM338.646 0C337.542 0 336.646 0.89543 336.646 2C336.646 3.10457 337.542 4 338.646 4V0ZM346.661 4C347.766 4 348.661 3.10457 348.661 2C348.661 0.89543 347.766 0 346.661 0V4ZM358.685 0C357.58 0 356.685 0.89543 356.685 2C356.685 3.10457 357.58 4 358.685 4V0ZM366.7 4C367.805 4 368.7 3.10457 368.7 2C368.7 0.89543 367.805 0 366.7 0V4ZM378.723 0C377.618 0 376.723 0.89543 376.723 2C376.723 3.10457 377.618 4 378.723 4V0ZM386.738 4C387.843 4 388.738 3.10457 388.738 2C388.738 0.89543 387.843 0 386.738 0V4ZM398.761 0C397.657 0 396.761 0.89543 396.761 2C396.761 3.10457 397.657 4 398.761 4V0ZM406.777 4C407.881 4 408.777 3.10457 408.777 2C408.777 0.89543 407.881 0 406.777 0V4ZM418.8 0C417.695 0 416.8 0.89543 416.8 2C416.8 3.10457 417.695 4 418.8 4V0ZM426.815 4C427.92 4 428.815 3.10457 428.815 2C428.815 0.89543 427.92 0 426.815 0V4ZM438.838 0C437.734 0 436.838 0.89543 436.838 2C436.838 3.10457 437.734 4 438.838 4V0ZM446.854 4C447.958 4 448.854 3.10457 448.854 2C448.854 0.89543 447.958 0 446.854 0V4ZM458.877 0C457.772 0 456.877 0.89543 456.877 2C456.877 3.10457 457.772 4 458.877 4V0ZM466.892 4C467.997 4 468.892 3.10457 468.892 2C468.892 0.89543 467.997 0 466.892 0V4ZM478.915 0C477.811 0 476.915 0.89543 476.915 2C476.915 3.10457 477.811 4 478.915 4V0ZM486.931 4C488.035 4 488.931 3.10457 488.931 2C488.931 0.89543 488.035 0 486.931 0V4ZM498.954 0C497.849 0 496.954 0.89543 496.954 2C496.954 3.10457 497.849 4 498.954 4V0ZM506.969 4C508.074 4 508.969 3.10457 508.969 2C508.969 0.89543 508.074 0 506.969 0V4ZM518.992 0C517.888 0 516.992 0.89543 516.992 2C516.992 3.10457 517.888 4 518.992 4V0ZM527.008 4C528.112 4 529.008 3.10457 529.008 2C529.008 0.89543 528.112 0 527.008 0V4ZM539.031 0C537.926 0 537.031 0.89543 537.031 2C537.031 3.10457 537.926 4 539.031 4V0ZM547.046 4C548.151 4 549.046 3.10457 549.046 2C549.046 0.89543 548.151 0 547.046 0V4ZM559.069 0C557.965 0 557.069 0.89543 557.069 2C557.069 3.10457 557.965 4 559.069 4V0ZM567.084 4C568.189 4 569.084 3.10457 569.084 2C569.084 0.89543 568.189 0 567.084 0V4ZM579.108 0C578.003 0 577.108 0.89543 577.108 2C577.108 3.10457 578.003 4 579.108 4V0ZM587.123 4C588.227 4 589.123 3.10457 589.123 2C589.123 0.89543 588.227 0 587.123 0V4ZM599.146 0C598.041 0 597.146 0.89543 597.146 2C597.146 3.10457 598.041 4 599.146 4V0ZM607.161 4C608.266 4 609.161 3.10457 609.161 2C609.161 0.89543 608.266 0 607.161 0V4ZM619.184 0C618.08 0 617.184 0.89543 617.184 2C617.184 3.10457 618.08 4 619.184 4V0ZM627.2 4C628.304 4 629.2 3.10457 629.2 2C629.2 0.89543 628.304 0 627.2 0V4ZM639.223 0C638.118 0 637.223 0.89543 637.223 2C637.223 3.10457 638.118 4 639.223 4V0ZM647.238 4C648.343 4 649.238 3.10457 649.238 2C649.238 0.89543 648.343 0 647.238 0V4ZM659.261 0C658.157 0 657.261 0.89543 657.261 2C657.261 3.10457 658.157 4 659.261 4V0ZM667.277 4C668.381 4 669.277 3.10457 669.277 2C669.277 0.89543 668.381 0 667.277 0V4ZM679.3 0C678.195 0 677.3 0.89543 677.3 2C677.3 3.10457 678.195 4 679.3 4V0ZM687.315 4C688.42 4 689.315 3.10457 689.315 2C689.315 0.89543 688.42 0 687.315 0V4ZM699.338 0C698.234 0 697.338 0.89543 697.338 2C697.338 3.10457 698.234 4 699.338 4V0ZM707.354 4C708.458 4 709.354 3.10457 709.354 2C709.354 0.89543 708.458 0 707.354 0V4ZM719.377 0C718.272 0 717.377 0.89543 717.377 2C717.377 3.10457 718.272 4 719.377 4V0ZM727.392 4C728.497 4 729.392 3.10457 729.392 2C729.392 0.89543 728.497 0 727.392 0V4ZM739.415 0C738.311 0 737.415 0.89543 737.415 2C737.415 3.10457 738.311 4 739.415 4V0ZM747.431 4C748.535 4 749.431 3.10457 749.431 2C749.431 0.89543 748.535 0 747.431 0V4ZM759.454 0C758.349 0 757.454 0.89543 757.454 2C757.454 3.10457 758.349 4 759.454 4V0ZM767.469 4C768.574 4 769.469 3.10457 769.469 2C769.469 0.89543 768.574 0 767.469 0V4ZM779.492 0C778.388 0 777.492 0.89543 777.492 2C777.492 3.10457 778.388 4 779.492 4V0ZM787.507 4C788.612 4 789.507 3.10457 789.507 2C789.507 0.89543 788.612 0 787.507 0V4ZM799.531 0C798.426 0 797.531 0.89543 797.531 2C797.531 3.10457 798.426 4 799.531 4V0ZM807.546 4C808.65 4 809.546 3.10457 809.546 2C809.546 0.89543 808.65 0 807.546 0V4ZM819.569 0C818.464 0 817.569 0.89543 817.569 2C817.569 3.10457 818.464 4 819.569 4V0ZM827.584 4C828.689 4 829.584 3.10457 829.584 2C829.584 0.89543 828.689 0 827.584 0V4ZM839.607 0C838.503 0 837.607 0.89543 837.607 2C837.607 3.10457 838.503 4 839.607 4V0ZM847.623 4C848.727 4 849.623 3.10457 849.623 2C849.623 0.89543 848.727 0 847.623 0V4ZM859.646 0C858.541 0 857.646 0.89543 857.646 2C857.646 3.10457 858.541 4 859.646 4V0ZM867.661 4C868.766 4 869.661 3.10457 869.661 2C869.661 0.89543 868.766 0 867.661 0V4ZM879.684 0C878.58 0 877.684 0.89543 877.684 2C877.684 3.10457 878.58 4 879.684 4V0ZM887.7 4C888.804 4 889.7 3.10457 889.7 2C889.7 0.89543 888.804 0 887.7 0V4ZM899.723 0C898.618 0 897.723 0.89543 897.723 2C897.723 3.10457 898.618 4 899.723 4V0ZM907.738 4C908.843 4 909.738 3.10457 909.738 2C909.738 0.89543 908.843 0 907.738 0V4ZM919.761 0C918.657 0 917.761 0.89543 917.761 2C917.761 3.10457 918.657 4 919.761 4V0ZM927.777 4C928.881 4 929.777 3.10457 929.777 2C929.777 0.89543 928.881 0 927.777 0V4ZM939.8 0C938.695 0 937.8 0.89543 937.8 2C937.8 3.10457 938.695 4 939.8 4V0ZM947.815 4C948.92 4 949.815 3.10457 949.815 2C949.815 0.89543 948.92 0 947.815 0V4ZM959.838 0C958.734 0 957.838 0.89543 957.838 2C957.838 3.10457 958.734 4 959.838 4V0ZM967.854 4C968.958 4 969.854 3.10457 969.854 2C969.854 0.89543 968.958 0 967.854 0V4ZM979.877 0C978.772 0 977.877 0.89543 977.877 2C977.877 3.10457 978.772 4 979.877 4V0ZM987.892 4C988.997 4 989.892 3.10457 989.892 2C989.892 0.89543 988.997 0 987.892 0V4ZM999.915 0C998.81 0 997.915 0.89543 997.915 2C997.915 3.10457 998.81 4 999.915 4V0ZM1007.93 4C1009.03 4 1009.93 3.10457 1009.93 2C1009.93 0.89543 1009.03 0 1007.93 0V4ZM1019.95 0C1018.85 0 1017.95 0.89543 1017.95 2C1017.95 3.10457 1018.85 4 1019.95 4V0ZM1027.97 4C1029.07 4 1029.97 3.10457 1029.97 2C1029.97 0.89543 1029.07 0 1027.97 0V4ZM1039.99 0C1038.89 0 1037.99 0.89543 1037.99 2C1037.99 3.10457 1038.89 4 1039.99 4V0ZM1048.01 4C1049.11 4 1050.01 3.10457 1050.01 2C1050.01 0.89543 1049.11 0 1048.01 0V4ZM1060.03 0C1058.93 0 1058.03 0.89543 1058.03 2C1058.03 3.10457 1058.93 4 1060.03 4V0ZM1068.05 4C1069.15 4 1070.05 3.10457 1070.05 2C1070.05 0.89543 1069.15 0 1068.05 0V4ZM1080.07 0C1078.96 0 1078.07 0.89543 1078.07 2C1078.07 3.10457 1078.96 4 1080.07 4V0ZM1088.08 4C1089.19 4 1090.08 3.10457 1090.08 2C1090.08 0.89543 1089.19 0 1088.08 0V4ZM1100.11 0C1099 0 1098.11 0.89543 1098.11 2C1098.11 3.10457 1099 4 1100.11 4V0ZM1108.12 4C1109.23 4 1110.12 3.10457 1110.12 2C1110.12 0.89543 1109.23 0 1108.12 0V4ZM1120.15 0C1119.04 0 1118.15 0.89543 1118.15 2C1118.15 3.10457 1119.04 4 1120.15 4V0ZM1128.16 4C1129.27 4 1130.16 3.10457 1130.16 2C1130.16 0.89543 1129.27 0 1128.16 0V4ZM1140.18 0C1139.08 0 1138.18 0.89543 1138.18 2C1138.18 3.10457 1139.08 4 1140.18 4V0ZM1148.2 4C1149.3 4 1150.2 3.10457 1150.2 2C1150.2 0.89543 1149.3 0 1148.2 0V4ZM1160.22 0C1159.12 0 1158.22 0.89543 1158.22 2C1158.22 3.10457 1159.12 4 1160.22 4V0ZM1168.24 4C1169.34 4 1170.24 3.10457 1170.24 2C1170.24 0.89543 1169.34 0 1168.24 0V4ZM1180.26 0C1179.16 0 1178.26 0.89543 1178.26 2C1178.26 3.10457 1179.16 4 1180.26 4V0ZM1188.28 4C1189.38 4 1190.28 3.10457 1190.28 2C1190.28 0.89543 1189.38 0 1188.28 0V4ZM1200.3 0C1199.2 0 1198.3 0.89543 1198.3 2C1198.3 3.10457 1199.2 4 1200.3 4V0ZM1208.32 4C1209.42 4 1210.32 3.10457 1210.32 2C1210.32 0.89543 1209.42 0 1208.32 0V4ZM1220.34 0C1219.23 0 1218.34 0.89543 1218.34 2C1218.34 3.10457 1219.23 4 1220.34 4V0ZM1228.35 4C1229.46 4 1230.35 3.10457 1230.35 2C1230.35 0.89543 1229.46 0 1228.35 0V4ZM1240.38 0C1239.27 0 1238.38 0.89543 1238.38 2C1238.38 3.10457 1239.27 4 1240.38 4V0ZM1248.39 4C1249.5 4 1250.39 3.10457 1250.39 2C1250.39 0.89543 1249.5 0 1248.39 0V4ZM1260.41 0C1259.31 0 1258.41 0.89543 1258.41 2C1258.41 3.10457 1259.31 4 1260.41 4V0ZM1268.43 4C1269.53 4 1270.43 3.10457 1270.43 2C1270.43 0.89543 1269.53 0 1268.43 0V4ZM1280.45 0C1279.35 0 1278.45 0.89543 1278.45 2C1278.45 3.10457 1279.35 4 1280.45 4V0ZM1288.47 4C1289.57 4 1290.47 3.10457 1290.47 2C1290.47 0.89543 1289.57 0 1288.47 0V4ZM1300.49 0C1299.39 0 1298.49 0.89543 1298.49 2C1298.49 3.10457 1299.39 4 1300.49 4V0ZM1308.51 4C1309.61 4 1310.51 3.10457 1310.51 2C1310.51 0.89543 1309.61 0 1308.51 0V4ZM1320.53 0C1319.43 0 1318.53 0.89543 1318.53 2C1318.53 3.10457 1319.43 4 1320.53 4V0ZM1328.55 4C1329.65 4 1330.55 3.10457 1330.55 2C1330.55 0.89543 1329.65 0 1328.55 0V4ZM1340.57 0C1339.46 0 1338.57 0.89543 1338.57 2C1338.57 3.10457 1339.46 4 1340.57 4V0ZM1348.58 4C1349.69 4 1350.58 3.10457 1350.58 2C1350.58 0.89543 1349.69 0 1348.58 0V4ZM1360.61 0C1359.5 0 1358.61 0.89543 1358.61 2C1358.61 3.10457 1359.5 4 1360.61 4V0ZM1368.62 4C1369.73 4 1370.62 3.10457 1370.62 2C1370.62 0.89543 1369.73 0 1368.62 0V4ZM1380.65 0C1379.54 0 1378.65 0.89543 1378.65 2C1378.65 3.10457 1379.54 4 1380.65 4V0ZM1388.66 4C1389.77 4 1390.66 3.10457 1390.66 2C1390.66 0.89543 1389.77 0 1388.66 0V4ZM1400.68 0C1399.58 0 1398.68 0.89543 1398.68 2C1398.68 3.10457 1399.58 4 1400.68 4V0ZM1408.7 4C1409.8 4 1410.7 3.10457 1410.7 2C1410.7 0.89543 1409.8 0 1408.7 0V4ZM1420.72 0C1419.62 0 1418.72 0.89543 1418.72 2C1418.72 3.10457 1419.62 4 1420.72 4V0ZM1428.74 4C1429.84 4 1430.74 3.10457 1430.74 2C1430.74 0.89543 1429.84 0 1428.74 0V4ZM1440.76 0C1439.66 0 1438.76 0.89543 1438.76 2C1438.76 3.10457 1439.66 4 1440.76 4V0ZM1448.78 4C1449.88 4 1450.78 3.10457 1450.78 2C1450.78 0.89543 1449.88 0 1448.78 0V4ZM1460.8 0C1459.69 0 1458.8 0.89543 1458.8 2C1458.8 3.10457 1459.69 4 1460.8 4V0ZM1468.81 4C1469.92 4 1470.81 3.10457 1470.81 2C1470.81 0.89543 1469.92 0 1468.81 0V4ZM1480.84 0C1479.73 0 1478.84 0.89543 1478.84 2C1478.84 3.10457 1479.73 4 1480.84 4V0ZM1488.85 4C1489.96 4 1490.85 3.10457 1490.85 2C1490.85 0.89543 1489.96 0 1488.85 0V4ZM1500.88 0C1499.77 0 1498.88 0.89543 1498.88 2C1498.88 3.10457 1499.77 4 1500.88 4V0ZM1508.89 4C1510 4 1510.89 3.10457 1510.89 2C1510.89 0.89543 1510 0 1508.89 0V4ZM1520.91 0C1519.81 0 1518.91 0.89543 1518.91 2C1518.91 3.10457 1519.81 4 1520.91 4V0ZM1528.93 4C1530.03 4 1530.93 3.10457 1530.93 2C1530.93 0.89543 1530.03 0 1528.93 0V4ZM1540.95 0C1539.85 0 1538.95 0.89543 1538.95 2C1538.95 3.10457 1539.85 4 1540.95 4V0ZM1548.97 4C1550.07 4 1550.97 3.10457 1550.97 2C1550.97 0.89543 1550.07 0 1548.97 0V4ZM1560.99 0C1559.89 0 1558.99 0.89543 1558.99 2C1558.99 3.10457 1559.89 4 1560.99 4V0ZM1568.24 4.16751C1569.34 4.28166 1570.33 3.48356 1570.44 2.38491C1570.55 1.28625 1569.76 0.30308 1568.66 0.188931L1568.24 4.16751ZM1579.24 3.01901C1578.23 2.56916 1577.05 3.0223 1576.6 4.03112C1576.15 5.03993 1576.6 6.22241 1577.61 6.67226L1579.24 3.01901ZM1583.22 9.91744C1584.11 10.5674 1585.37 10.3703 1586.02 9.47724C1586.67 8.58415 1586.47 7.33325 1585.57 6.68328L1583.22 9.91744ZM1593.32 14.4251C1592.67 13.532 1591.42 13.3349 1590.52 13.9849C1589.63 14.6349 1589.43 15.8858 1590.08 16.7789L1593.32 14.4251ZM1593.33 22.3886C1593.78 23.3974 1594.96 23.8505 1595.97 23.4007C1596.98 22.9508 1597.43 21.7683 1596.98 20.7595L1593.33 22.3886ZM1599.81 31.3429C1599.7 30.2442 1598.71 29.4461 1597.62 29.5603C1596.52 29.6744 1595.72 30.6576 1595.83 31.7562L1599.81 31.3429ZM1596 38.9667C1596 40.0712 1596.9 40.9667 1598 40.9667C1599.1 40.9667 1600 40.0712 1600 38.9667H1596ZM1600 50.8667C1600 49.7621 1599.1 48.8667 1598 48.8667C1596.9 48.8667 1596 49.7621 1596 50.8667H1600ZM1596 58.8C1596 59.9046 1596.9 60.8 1598 60.8C1599.1 60.8 1600 59.9046 1600 58.8H1596ZM1600 70.7C1600 69.5954 1599.1 68.7 1598 68.7C1596.9 68.7 1596 69.5954 1596 70.7H1600ZM1596 78.6333C1596 79.7379 1596.9 80.6333 1598 80.6333C1599.1 80.6333 1600 79.7379 1600 78.6333H1596ZM1600 90.5333C1600 89.4288 1599.1 88.5333 1598 88.5333C1596.9 88.5333 1596 89.4288 1596 90.5333H1600ZM1596 98.4667C1596 99.5712 1596.9 100.467 1598 100.467C1599.1 100.467 1600 99.5712 1600 98.4667H1596ZM1600 110.367C1600 109.262 1599.1 108.367 1598 108.367C1596.9 108.367 1596 109.262 1596 110.367H1600ZM1596 118.3C1596 119.405 1596.9 120.3 1598 120.3C1599.1 120.3 1600 119.405 1600 118.3H1596ZM1600 130.2C1600 129.095 1599.1 128.2 1598 128.2C1596.9 128.2 1596 129.095 1596 130.2H1600ZM1596 138.133C1596 139.238 1596.9 140.133 1598 140.133C1599.1 140.133 1600 139.238 1600 138.133H1596ZM1600 150.033C1600 148.929 1599.1 148.033 1598 148.033C1596.9 148.033 1596 148.929 1596 150.033H1600ZM1596 157.967C1596 159.071 1596.9 159.967 1598 159.967C1599.1 159.967 1600 159.071 1600 157.967H1596ZM1600 169.867C1600 168.762 1599.1 167.867 1598 167.867C1596.9 167.867 1596 168.762 1596 169.867H1600ZM1596 177.8C1596 178.905 1596.9 179.8 1598 179.8C1599.1 179.8 1600 178.905 1600 177.8H1596ZM1600 189.7C1600 188.595 1599.1 187.7 1598 187.7C1596.9 187.7 1596 188.595 1596 189.7H1600ZM1596 197.633C1596 198.738 1596.9 199.633 1598 199.633C1599.1 199.633 1600 198.738 1600 197.633H1596ZM1600 209.533C1600 208.429 1599.1 207.533 1598 207.533C1596.9 207.533 1596 208.429 1596 209.533H1600ZM1596 217.467C1596 218.571 1596.9 219.467 1598 219.467C1599.1 219.467 1600 218.571 1600 217.467H1596ZM1600 229.367C1600 228.262 1599.1 227.367 1598 227.367C1596.9 227.367 1596 228.262 1596 229.367H1600ZM1596 237.3C1596 238.405 1596.9 239.3 1598 239.3C1599.1 239.3 1600 238.405 1600 237.3H1596ZM1600 249.2C1600 248.095 1599.1 247.2 1598 247.2C1596.9 247.2 1596 248.095 1596 249.2H1600ZM1596 257.133C1596 258.238 1596.9 259.133 1598 259.133C1599.1 259.133 1600 258.238 1600 257.133H1596ZM1600 269.033C1600 267.929 1599.1 267.033 1598 267.033C1596.9 267.033 1596 267.929 1596 269.033H1600ZM1596 276.967C1596 278.071 1596.9 278.967 1598 278.967C1599.1 278.967 1600 278.071 1600 276.967H1596ZM1600 288.867C1600 287.762 1599.1 286.867 1598 286.867C1596.9 286.867 1596 287.762 1596 288.867H1600ZM1596 296.8C1596 297.905 1596.9 298.8 1598 298.8C1599.1 298.8 1600 297.905 1600 296.8H1596ZM1600 308.7C1600 307.595 1599.1 306.7 1598 306.7C1596.9 306.7 1596 307.595 1596 308.7H1600ZM1596 316.633C1596 317.738 1596.9 318.633 1598 318.633C1599.1 318.633 1600 317.738 1600 316.633H1596ZM1600 328.533C1600 327.429 1599.1 326.533 1598 326.533C1596.9 326.533 1596 327.429 1596 328.533H1600ZM1596 336.467C1596 337.571 1596.9 338.467 1598 338.467C1599.1 338.467 1600 337.571 1600 336.467H1596ZM1600 348.367C1600 347.262 1599.1 346.367 1598 346.367C1596.9 346.367 1596 347.262 1596 348.367H1600ZM1596 356.3C1596 357.404 1596.9 358.3 1598 358.3C1599.1 358.3 1600 357.404 1600 356.3H1596ZM1600 368.2C1600 367.095 1599.1 366.2 1598 366.2C1596.9 366.2 1596 367.095 1596 368.2H1600ZM1596 376.133C1596 377.238 1596.9 378.133 1598 378.133C1599.1 378.133 1600 377.238 1600 376.133H1596ZM1600 388.033C1600 386.929 1599.1 386.033 1598 386.033C1596.9 386.033 1596 386.929 1596 388.033H1600ZM1596 395.967C1596 397.071 1596.9 397.967 1598 397.967C1599.1 397.967 1600 397.071 1600 395.967H1596ZM1600 407.867C1600 406.762 1599.1 405.867 1598 405.867C1596.9 405.867 1596 406.762 1596 407.867H1600ZM1596 415.8C1596 416.904 1596.9 417.8 1598 417.8C1599.1 417.8 1600 416.904 1600 415.8H1596ZM1600 427.7C1600 426.595 1599.1 425.7 1598 425.7C1596.9 425.7 1596 426.595 1596 427.7H1600ZM1596 435.633C1596 436.738 1596.9 437.633 1598 437.633C1599.1 437.633 1600 436.738 1600 435.633H1596ZM1600 447.533C1600 446.429 1599.1 445.533 1598 445.533C1596.9 445.533 1596 446.429 1596 447.533H1600ZM1595.83 454.744C1595.72 455.842 1596.52 456.826 1597.62 456.94C1598.71 457.054 1599.7 456.256 1599.81 455.157L1595.83 454.744ZM1596.98 465.74C1597.43 464.732 1596.98 463.549 1595.97 463.099C1594.96 462.65 1593.78 463.103 1593.33 464.111L1596.98 465.74ZM1590.08 469.721C1589.43 470.614 1589.63 471.865 1590.52 472.515C1591.42 473.165 1592.67 472.968 1593.32 472.075L1590.08 469.721ZM1585.57 479.817C1586.47 479.167 1586.67 477.916 1586.02 477.023C1585.37 476.13 1584.11 475.933 1583.22 476.583L1585.57 479.817ZM1577.61 479.828C1576.6 480.278 1576.15 481.46 1576.6 482.469C1577.05 483.478 1578.23 483.931 1579.24 483.481L1577.61 479.828ZM1568.66 486.311C1569.76 486.197 1570.55 485.214 1570.44 484.115C1570.33 483.016 1569.34 482.218 1568.24 482.332L1568.66 486.311ZM1561.03 482.5C1559.92 482.5 1559.03 483.395 1559.03 484.5C1559.03 485.605 1559.92 486.5 1561.03 486.5V482.5ZM1549.1 486.5C1550.21 486.5 1551.1 485.605 1551.1 484.5C1551.1 483.395 1550.21 482.5 1549.1 482.5V486.5ZM1541.16 482.5C1540.05 482.5 1539.16 483.395 1539.16 484.5C1539.16 485.605 1540.05 486.5 1541.16 486.5V482.5ZM1529.23 486.5C1530.34 486.5 1531.23 485.605 1531.23 484.5C1531.23 483.395 1530.34 482.5 1529.23 482.5V486.5ZM1521.29 482.5C1520.18 482.5 1519.29 483.395 1519.29 484.5C1519.29 485.605 1520.18 486.5 1521.29 486.5V482.5ZM1509.36 486.5C1510.47 486.5 1511.36 485.605 1511.36 484.5C1511.36 483.395 1510.47 482.5 1509.36 482.5V486.5ZM1501.42 482.5C1500.31 482.5 1499.42 483.395 1499.42 484.5C1499.42 485.605 1500.31 486.5 1501.42 486.5V482.5ZM1489.49 486.5C1490.6 486.5 1491.49 485.605 1491.49 484.5C1491.49 483.395 1490.6 482.5 1489.49 482.5V486.5ZM1481.55 482.5C1480.44 482.5 1479.55 483.395 1479.55 484.5C1479.55 485.605 1480.44 486.5 1481.55 486.5V482.5ZM1469.62 486.5C1470.73 486.5 1471.62 485.605 1471.62 484.5C1471.62 483.395 1470.73 482.5 1469.62 482.5V486.5ZM1461.68 482.5C1460.57 482.5 1459.68 483.395 1459.68 484.5C1459.68 485.605 1460.57 486.5 1461.68 486.5V482.5ZM1449.75 486.5C1450.86 486.5 1451.75 485.605 1451.75 484.5C1451.75 483.395 1450.86 482.5 1449.75 482.5V486.5ZM1441.81 482.5C1440.7 482.5 1439.81 483.395 1439.81 484.5C1439.81 485.605 1440.7 486.5 1441.81 486.5V482.5ZM1429.88 486.5C1430.99 486.5 1431.88 485.605 1431.88 484.5C1431.88 483.395 1430.99 482.5 1429.88 482.5V486.5ZM1421.94 482.5C1420.83 482.5 1419.94 483.395 1419.94 484.5C1419.94 485.605 1420.83 486.5 1421.94 486.5V482.5ZM1410.01 486.5C1411.12 486.5 1412.01 485.605 1412.01 484.5C1412.01 483.395 1411.12 482.5 1410.01 482.5V486.5ZM1402.06 482.5C1400.96 482.5 1400.06 483.395 1400.06 484.5C1400.06 485.605 1400.96 486.5 1402.06 486.5V482.5ZM1390.14 486.5C1391.25 486.5 1392.14 485.605 1392.14 484.5C1392.14 483.395 1391.25 482.5 1390.14 482.5V486.5ZM1382.19 482.5C1381.09 482.5 1380.19 483.395 1380.19 484.5C1380.19 485.605 1381.09 486.5 1382.19 486.5V482.5ZM1370.27 486.5C1371.38 486.5 1372.27 485.605 1372.27 484.5C1372.27 483.395 1371.38 482.5 1370.27 482.5V486.5ZM1362.32 482.5C1361.22 482.5 1360.32 483.395 1360.32 484.5C1360.32 485.605 1361.22 486.5 1362.32 486.5V482.5ZM1350.4 486.5C1351.51 486.5 1352.4 485.605 1352.4 484.5C1352.4 483.395 1351.51 482.5 1350.4 482.5V486.5ZM1342.45 482.5C1341.35 482.5 1340.45 483.395 1340.45 484.5C1340.45 485.605 1341.35 486.5 1342.45 486.5V482.5ZM1330.53 486.5C1331.64 486.5 1332.53 485.605 1332.53 484.5C1332.53 483.395 1331.64 482.5 1330.53 482.5V486.5ZM1322.58 482.5C1321.48 482.5 1320.58 483.395 1320.58 484.5C1320.58 485.605 1321.48 486.5 1322.58 486.5V482.5ZM1310.66 486.5C1311.77 486.5 1312.66 485.605 1312.66 484.5C1312.66 483.395 1311.77 482.5 1310.66 482.5V486.5ZM1302.71 482.5C1301.61 482.5 1300.71 483.395 1300.71 484.5C1300.71 485.605 1301.61 486.5 1302.71 486.5V482.5ZM1290.79 486.5C1291.9 486.5 1292.79 485.605 1292.79 484.5C1292.79 483.395 1291.9 482.5 1290.79 482.5V486.5ZM1282.84 482.5C1281.74 482.5 1280.84 483.395 1280.84 484.5C1280.84 485.605 1281.74 486.5 1282.84 486.5V482.5ZM1270.92 486.5C1272.03 486.5 1272.92 485.605 1272.92 484.5C1272.92 483.395 1272.03 482.5 1270.92 482.5V486.5ZM1262.97 482.5C1261.87 482.5 1260.97 483.395 1260.97 484.5C1260.97 485.605 1261.87 486.5 1262.97 486.5V482.5ZM1251.05 486.5C1252.16 486.5 1253.05 485.605 1253.05 484.5C1253.05 483.395 1252.16 482.5 1251.05 482.5V486.5ZM1243.1 482.5C1242 482.5 1241.1 483.395 1241.1 484.5C1241.1 485.605 1242 486.5 1243.1 486.5V482.5ZM1231.18 486.5C1232.29 486.5 1233.18 485.605 1233.18 484.5C1233.18 483.395 1232.29 482.5 1231.18 482.5V486.5ZM1223.23 482.5C1222.13 482.5 1221.23 483.395 1221.23 484.5C1221.23 485.605 1222.13 486.5 1223.23 486.5V482.5ZM1211.31 486.5C1212.42 486.5 1213.31 485.605 1213.31 484.5C1213.31 483.395 1212.42 482.5 1211.31 482.5V486.5ZM1203.36 482.5C1202.26 482.5 1201.36 483.395 1201.36 484.5C1201.36 485.605 1202.26 486.5 1203.36 486.5V482.5ZM1191.44 486.5C1192.55 486.5 1193.44 485.605 1193.44 484.5C1193.44 483.395 1192.55 482.5 1191.44 482.5V486.5ZM1183.49 482.5C1182.39 482.5 1181.49 483.395 1181.49 484.5C1181.49 485.605 1182.39 486.5 1183.49 486.5V482.5ZM1171.57 486.5C1172.68 486.5 1173.57 485.605 1173.57 484.5C1173.57 483.395 1172.68 482.5 1171.57 482.5V486.5ZM1163.62 482.5C1162.52 482.5 1161.62 483.395 1161.62 484.5C1161.62 485.605 1162.52 486.5 1163.62 486.5V482.5ZM1151.7 486.5C1152.81 486.5 1153.7 485.605 1153.7 484.5C1153.7 483.395 1152.81 482.5 1151.7 482.5V486.5ZM1143.75 482.5C1142.65 482.5 1141.75 483.395 1141.75 484.5C1141.75 485.605 1142.65 486.5 1143.75 486.5V482.5ZM1131.83 486.5C1132.94 486.5 1133.83 485.605 1133.83 484.5C1133.83 483.395 1132.94 482.5 1131.83 482.5V486.5ZM1123.88 482.5C1122.78 482.5 1121.88 483.395 1121.88 484.5C1121.88 485.605 1122.78 486.5 1123.88 486.5V482.5ZM1111.96 486.5C1113.07 486.5 1113.96 485.605 1113.96 484.5C1113.96 483.395 1113.07 482.5 1111.96 482.5V486.5ZM1104.01 482.5C1102.91 482.5 1102.01 483.395 1102.01 484.5C1102.01 485.605 1102.91 486.5 1104.01 486.5V482.5ZM1092.09 486.5C1093.2 486.5 1094.09 485.605 1094.09 484.5C1094.09 483.395 1093.2 482.5 1092.09 482.5V486.5ZM1084.14 482.5C1083.04 482.5 1082.14 483.395 1082.14 484.5C1082.14 485.605 1083.04 486.5 1084.14 486.5V482.5ZM1072.22 486.5C1073.33 486.5 1074.22 485.605 1074.22 484.5C1074.22 483.395 1073.33 482.5 1072.22 482.5V486.5ZM1064.27 482.5C1063.17 482.5 1062.27 483.395 1062.27 484.5C1062.27 485.605 1063.17 486.5 1064.27 486.5V482.5ZM1052.35 486.5C1053.45 486.5 1054.35 485.605 1054.35 484.5C1054.35 483.395 1053.45 482.5 1052.35 482.5V486.5ZM1044.4 482.5C1043.3 482.5 1042.4 483.395 1042.4 484.5C1042.4 485.605 1043.3 486.5 1044.4 486.5V482.5ZM1032.48 486.5C1033.58 486.5 1034.48 485.605 1034.48 484.5C1034.48 483.395 1033.58 482.5 1032.48 482.5V486.5ZM1024.53 482.5C1023.43 482.5 1022.53 483.395 1022.53 484.5C1022.53 485.605 1023.43 486.5 1024.53 486.5V482.5ZM1012.61 486.5C1013.71 486.5 1014.61 485.605 1014.61 484.5C1014.61 483.395 1013.71 482.5 1012.61 482.5V486.5ZM1004.66 482.5C1003.56 482.5 1002.66 483.395 1002.66 484.5C1002.66 485.605 1003.56 486.5 1004.66 486.5V482.5ZM992.74 486.5C993.845 486.5 994.74 485.605 994.74 484.5C994.74 483.395 993.845 482.5 992.74 482.5V486.5ZM984.792 482.5C983.687 482.5 982.792 483.395 982.792 484.5C982.792 485.605 983.687 486.5 984.792 486.5V482.5ZM972.87 486.5C973.974 486.5 974.87 485.605 974.87 484.5C974.87 483.395 973.974 482.5 972.87 482.5V486.5ZM964.922 482.5C963.817 482.5 962.922 483.395 962.922 484.5C962.922 485.605 963.817 486.5 964.922 486.5V482.5ZM953 486.5C954.104 486.5 955 485.605 955 484.5C955 483.395 954.104 482.5 953 482.5V486.5ZM945.052 482.5C943.947 482.5 943.052 483.395 943.052 484.5C943.052 485.605 943.947 486.5 945.052 486.5V482.5ZM933.13 486.5C934.234 486.5 935.13 485.605 935.13 484.5C935.13 483.395 934.234 482.5 933.13 482.5V486.5ZM925.182 482.5C924.077 482.5 923.182 483.395 923.182 484.5C923.182 485.605 924.077 486.5 925.182 486.5V482.5ZM913.26 486.5C914.364 486.5 915.26 485.605 915.26 484.5C915.26 483.395 914.364 482.5 913.26 482.5V486.5ZM905.312 482.5C904.207 482.5 903.312 483.395 903.312 484.5C903.312 485.605 904.207 486.5 905.312 486.5V482.5ZM893.389 486.5C894.494 486.5 895.389 485.605 895.389 484.5C895.389 483.395 894.494 482.5 893.389 482.5V486.5ZM885.441 482.5C884.337 482.5 883.441 483.395 883.441 484.5C883.441 485.605 884.337 486.5 885.441 486.5V482.5ZM873.519 486.5C874.624 486.5 875.519 485.605 875.519 484.5C875.519 483.395 874.624 482.5 873.519 482.5V486.5ZM865.571 482.5C864.467 482.5 863.571 483.395 863.571 484.5C863.571 485.605 864.467 486.5 865.571 486.5V482.5ZM853.649 486.5C854.754 486.5 855.649 485.605 855.649 484.5C855.649 483.395 854.754 482.5 853.649 482.5V486.5ZM845.701 482.5C844.597 482.5 843.701 483.395 843.701 484.5C843.701 485.605 844.597 486.5 845.701 486.5V482.5ZM833.779 486.5C834.884 486.5 835.779 485.605 835.779 484.5C835.779 483.395 834.884 482.5 833.779 482.5V486.5ZM825.831 482.5C824.727 482.5 823.831 483.395 823.831 484.5C823.831 485.605 824.727 486.5 825.831 486.5V482.5ZM813.909 486.5C815.014 486.5 815.909 485.605 815.909 484.5C815.909 483.395 815.014 482.5 813.909 482.5V486.5ZM805.961 482.5C804.856 482.5 803.961 483.395 803.961 484.5C803.961 485.605 804.856 486.5 805.961 486.5V482.5ZM794.039 486.5C795.143 486.5 796.039 485.605 796.039 484.5C796.039 483.395 795.143 482.5 794.039 482.5V486.5ZM786.091 482.5C784.986 482.5 784.091 483.395 784.091 484.5C784.091 485.605 784.986 486.5 786.091 486.5V482.5ZM774.169 486.5C775.273 486.5 776.169 485.605 776.169 484.5C776.169 483.395 775.273 482.5 774.169 482.5V486.5ZM766.221 482.5C765.116 482.5 764.221 483.395 764.221 484.5C764.221 485.605 765.116 486.5 766.221 486.5V482.5ZM754.299 486.5C755.403 486.5 756.299 485.605 756.299 484.5C756.299 483.395 755.403 482.5 754.299 482.5V486.5ZM746.351 482.5C745.246 482.5 744.351 483.395 744.351 484.5C744.351 485.605 745.246 486.5 746.351 486.5V482.5ZM734.429 486.5C735.533 486.5 736.429 485.605 736.429 484.5C736.429 483.395 735.533 482.5 734.429 482.5V486.5ZM726.48 482.5C725.376 482.5 724.48 483.395 724.48 484.5C724.48 485.605 725.376 486.5 726.48 486.5V482.5ZM714.558 486.5C715.663 486.5 716.558 485.605 716.558 484.5C716.558 483.395 715.663 482.5 714.558 482.5V486.5ZM706.61 482.5C705.506 482.5 704.61 483.395 704.61 484.5C704.61 485.605 705.506 486.5 706.61 486.5V482.5ZM694.688 486.5C695.793 486.5 696.688 485.605 696.688 484.5C696.688 483.395 695.793 482.5 694.688 482.5V486.5ZM686.74 482.5C685.636 482.5 684.74 483.395 684.74 484.5C684.74 485.605 685.636 486.5 686.74 486.5V482.5ZM674.818 486.5C675.923 486.5 676.818 485.605 676.818 484.5C676.818 483.395 675.923 482.5 674.818 482.5V486.5ZM666.87 482.5C665.766 482.5 664.87 483.395 664.87 484.5C664.87 485.605 665.766 486.5 666.87 486.5V482.5ZM654.948 486.5C656.053 486.5 656.948 485.605 656.948 484.5C656.948 483.395 656.053 482.5 654.948 482.5V486.5ZM647 482.5C645.895 482.5 645 483.395 645 484.5C645 485.605 645.895 486.5 647 486.5V482.5ZM635.078 486.5C636.182 486.5 637.078 485.605 637.078 484.5C637.078 483.395 636.182 482.5 635.078 482.5V486.5ZM627.13 482.5C626.025 482.5 625.13 483.395 625.13 484.5C625.13 485.605 626.025 486.5 627.13 486.5V482.5ZM615.208 486.5C616.312 486.5 617.208 485.605 617.208 484.5C617.208 483.395 616.312 482.5 615.208 482.5V486.5ZM607.26 482.5C606.155 482.5 605.26 483.395 605.26 484.5C605.26 485.605 606.155 486.5 607.26 486.5V482.5ZM595.338 486.5C596.442 486.5 597.338 485.605 597.338 484.5C597.338 483.395 596.442 482.5 595.338 482.5V486.5ZM587.39 482.5C586.285 482.5 585.39 483.395 585.39 484.5C585.39 485.605 586.285 486.5 587.39 486.5V482.5ZM575.468 486.5C576.572 486.5 577.468 485.605 577.468 484.5C577.468 483.395 576.572 482.5 575.468 482.5V486.5ZM567.519 482.5C566.415 482.5 565.519 483.395 565.519 484.5C565.519 485.605 566.415 486.5 567.519 486.5V482.5ZM555.597 486.5C556.702 486.5 557.597 485.605 557.597 484.5C557.597 483.395 556.702 482.5 555.597 482.5V486.5ZM547.649 482.5C546.545 482.5 545.649 483.395 545.649 484.5C545.649 485.605 546.545 486.5 547.649 486.5V482.5ZM535.727 486.5C536.832 486.5 537.727 485.605 537.727 484.5C537.727 483.395 536.832 482.5 535.727 482.5V486.5ZM527.779 482.5C526.675 482.5 525.779 483.395 525.779 484.5C525.779 485.605 526.675 486.5 527.779 486.5V482.5ZM515.857 486.5C516.962 486.5 517.857 485.605 517.857 484.5C517.857 483.395 516.962 482.5 515.857 482.5V486.5ZM507.909 482.5C506.805 482.5 505.909 483.395 505.909 484.5C505.909 485.605 506.805 486.5 507.909 486.5V482.5ZM495.987 486.5C497.092 486.5 497.987 485.605 497.987 484.5C497.987 483.395 497.092 482.5 495.987 482.5V486.5ZM488.039 482.5C486.934 482.5 486.039 483.395 486.039 484.5C486.039 485.605 486.934 486.5 488.039 486.5V482.5ZM476.117 486.5C477.221 486.5 478.117 485.605 478.117 484.5C478.117 483.395 477.221 482.5 476.117 482.5V486.5ZM468.169 482.5C467.064 482.5 466.169 483.395 466.169 484.5C466.169 485.605 467.064 486.5 468.169 486.5V482.5ZM456.247 486.5C457.351 486.5 458.247 485.605 458.247 484.5C458.247 483.395 457.351 482.5 456.247 482.5V486.5ZM448.299 482.5C447.194 482.5 446.299 483.395 446.299 484.5C446.299 485.605 447.194 486.5 448.299 486.5V482.5ZM436.377 486.5C437.481 486.5 438.377 485.605 438.377 484.5C438.377 483.395 437.481 482.5 436.377 482.5V486.5ZM428.429 482.5C427.324 482.5 426.429 483.395 426.429 484.5C426.429 485.605 427.324 486.5 428.429 486.5V482.5ZM416.507 486.5C417.611 486.5 418.507 485.605 418.507 484.5C418.507 483.395 417.611 482.5 416.507 482.5V486.5ZM408.559 482.5C407.454 482.5 406.559 483.395 406.559 484.5C406.559 485.605 407.454 486.5 408.559 486.5V482.5ZM396.636 486.5C397.741 486.5 398.636 485.605 398.636 484.5C398.636 483.395 397.741 482.5 396.636 482.5V486.5ZM388.688 482.5C387.584 482.5 386.688 483.395 386.688 484.5C386.688 485.605 387.584 486.5 388.688 486.5V482.5ZM376.766 486.5C377.871 486.5 378.766 485.605 378.766 484.5C378.766 483.395 377.871 482.5 376.766 482.5V486.5ZM368.818 482.5C367.714 482.5 366.818 483.395 366.818 484.5C366.818 485.605 367.714 486.5 368.818 486.5V482.5ZM356.896 486.5C358.001 486.5 358.896 485.605 358.896 484.5C358.896 483.395 358.001 482.5 356.896 482.5V486.5ZM348.948 482.5C347.844 482.5 346.948 483.395 346.948 484.5C346.948 485.605 347.844 486.5 348.948 486.5V482.5ZM337.026 486.5C338.131 486.5 339.026 485.605 339.026 484.5C339.026 483.395 338.131 482.5 337.026 482.5V486.5ZM329.078 482.5C327.974 482.5 327.078 483.395 327.078 484.5C327.078 485.605 327.974 486.5 329.078 486.5V482.5ZM317.156 486.5C318.261 486.5 319.156 485.605 319.156 484.5C319.156 483.395 318.261 482.5 317.156 482.5V486.5ZM309.208 482.5C308.103 482.5 307.208 483.395 307.208 484.5C307.208 485.605 308.103 486.5 309.208 486.5V482.5ZM297.286 486.5C298.39 486.5 299.286 485.605 299.286 484.5C299.286 483.395 298.39 482.5 297.286 482.5V486.5ZM289.338 482.5C288.233 482.5 287.338 483.395 287.338 484.5C287.338 485.605 288.233 486.5 289.338 486.5V482.5ZM277.416 486.5C278.52 486.5 279.416 485.605 279.416 484.5C279.416 483.395 278.52 482.5 277.416 482.5V486.5ZM269.468 482.5C268.363 482.5 267.468 483.395 267.468 484.5C267.468 485.605 268.363 486.5 269.468 486.5V482.5ZM257.546 486.5C258.65 486.5 259.546 485.605 259.546 484.5C259.546 483.395 258.65 482.5 257.546 482.5V486.5ZM249.598 482.5C248.493 482.5 247.598 483.395 247.598 484.5C247.598 485.605 248.493 486.5 249.598 486.5V482.5ZM237.676 486.5C238.78 486.5 239.676 485.605 239.676 484.5C239.676 483.395 238.78 482.5 237.676 482.5V486.5ZM229.728 482.5C228.623 482.5 227.728 483.395 227.728 484.5C227.728 485.605 228.623 486.5 229.728 486.5V482.5ZM217.805 486.5C218.91 486.5 219.805 485.605 219.805 484.5C219.805 483.395 218.91 482.5 217.805 482.5V486.5ZM209.857 482.5C208.753 482.5 207.857 483.395 207.857 484.5C207.857 485.605 208.753 486.5 209.857 486.5V482.5ZM197.935 486.5C199.04 486.5 199.935 485.605 199.935 484.5C199.935 483.395 199.04 482.5 197.935 482.5V486.5ZM189.987 482.5C188.883 482.5 187.987 483.395 187.987 484.5C187.987 485.605 188.883 486.5 189.987 486.5V482.5ZM178.065 486.5C179.17 486.5 180.065 485.605 180.065 484.5C180.065 483.395 179.17 482.5 178.065 482.5V486.5ZM170.117 482.5C169.013 482.5 168.117 483.395 168.117 484.5C168.117 485.605 169.013 486.5 170.117 486.5V482.5ZM158.195 486.5C159.3 486.5 160.195 485.605 160.195 484.5C160.195 483.395 159.3 482.5 158.195 482.5V486.5ZM150.247 482.5C149.142 482.5 148.247 483.395 148.247 484.5C148.247 485.605 149.142 486.5 150.247 486.5V482.5ZM138.325 486.5C139.43 486.5 140.325 485.605 140.325 484.5C140.325 483.395 139.43 482.5 138.325 482.5V486.5ZM130.377 482.5C129.272 482.5 128.377 483.395 128.377 484.5C128.377 485.605 129.272 486.5 130.377 486.5V482.5ZM118.455 486.5C119.559 486.5 120.455 485.605 120.455 484.5C120.455 483.395 119.559 482.5 118.455 482.5V486.5ZM110.507 482.5C109.402 482.5 108.507 483.395 108.507 484.5C108.507 485.605 109.402 486.5 110.507 486.5V482.5ZM98.5847 486.5C99.6892 486.5 100.585 485.605 100.585 484.5C100.585 483.395 99.6892 482.5 98.5847 482.5V486.5ZM90.6366 482.5C89.5321 482.5 88.6366 483.395 88.6366 484.5C88.6366 485.605 89.5321 486.5 90.6366 486.5V482.5ZM78.7145 486.5C79.8191 486.5 80.7145 485.605 80.7145 484.5C80.7145 483.395 79.8191 482.5 78.7145 482.5V486.5ZM70.7666 482.5C69.662 482.5 68.7666 483.395 68.7666 484.5C68.7666 485.605 69.662 486.5 70.7666 486.5V482.5ZM58.8445 486.5C59.9491 486.5 60.8445 485.605 60.8445 484.5C60.8445 483.395 59.9491 482.5 58.8445 482.5V486.5ZM50.8965 482.5C49.7919 482.5 48.8965 483.395 48.8965 484.5C48.8965 485.605 49.7919 486.5 50.8965 486.5V482.5ZM38.9743 486.5C40.0789 486.5 40.9743 485.605 40.9743 484.5C40.9743 483.395 40.0789 482.5 38.9743 482.5V486.5ZM31.3428 482.689C30.2442 482.803 29.4461 483.786 29.5602 484.885C29.6744 485.984 30.6576 486.782 31.7562 486.668L31.3428 482.689ZM22.3885 489.172C23.3973 488.722 23.8505 487.54 23.4006 486.531C22.9508 485.522 21.7683 485.069 20.7595 485.519L22.3885 489.172ZM14.4251 489.183C13.532 489.833 13.3349 491.084 13.9849 491.977C14.6349 492.87 15.8858 493.067 16.7788 492.417L14.4251 489.183ZM9.91743 499.279C10.5674 498.386 10.3703 497.135 9.47722 496.485C8.58413 495.835 7.33323 496.032 6.68326 496.925L9.91743 499.279ZM3.019 503.26C2.56915 504.268 3.02229 505.451 4.03111 505.901C5.03993 506.35 6.22241 505.897 6.67225 504.889L3.019 503.26ZM4.16751 514.256C4.28166 513.158 3.48356 512.174 2.38491 512.06C1.28625 511.946 0.303079 512.744 0.18893 513.843L4.16751 514.256ZM0 521.665C0 522.77 0.89543 523.665 2 523.665C3.10457 523.665 4 522.77 4 521.665H0ZM4 534.16C4 533.055 3.10457 532.16 2 532.16C0.89543 532.16 0 533.055 0 534.16H4ZM0 542.49C0 543.595 0.89543 544.49 2 544.49C3.10457 544.49 4 543.595 4 542.49H0ZM4 554.985C4 553.88 3.10457 552.985 2 552.985C0.89543 552.985 0 553.88 0 554.985H4ZM0 563.315C0 564.42 0.89543 565.315 2 565.315C3.10457 565.315 4 564.42 4 563.315H0ZM4 575.81C4 574.705 3.10457 573.81 2 573.81C0.89543 573.81 0 574.705 0 575.81H4ZM0 584.14C0 585.245 0.89543 586.14 2 586.14C3.10457 586.14 4 585.245 4 584.14H0ZM4 596.635C4 595.53 3.10457 594.635 2 594.635C0.89543 594.635 0 595.53 0 596.635H4ZM0 604.965C0 606.07 0.89543 606.965 2 606.965C3.10457 606.965 4 606.07 4 604.965H0ZM4 617.46C4 616.355 3.10457 615.46 2 615.46C0.89543 615.46 0 616.355 0 617.46H4ZM0 625.79C0 626.895 0.89543 627.79 2 627.79C3.10457 627.79 4 626.895 4 625.79H0ZM4 638.285C4 637.18 3.10457 636.285 2 636.285C0.89543 636.285 0 637.18 0 638.285H4ZM0 646.615C0 647.72 0.89543 648.615 2 648.615C3.10457 648.615 4 647.72 4 646.615H0ZM4 659.11C4 658.005 3.10457 657.11 2 657.11C0.89543 657.11 0 658.005 0 659.11H4ZM0 667.44C0 668.545 0.89543 669.44 2 669.44C3.10457 669.44 4 668.545 4 667.44H0ZM4 679.935C4 678.83 3.10457 677.935 2 677.935C0.89543 677.935 0 678.83 0 679.935H4ZM0 688.265C0 689.37 0.89543 690.265 2 690.265C3.10457 690.265 4 689.37 4 688.265H0ZM4 700.76C4 699.655 3.10457 698.76 2 698.76C0.89543 698.76 0 699.655 0 700.76H4ZM0 709.09C0 710.195 0.89543 711.09 2 711.09C3.10457 711.09 4 710.195 4 709.09H0ZM4 721.585C4 720.48 3.10457 719.585 2 719.585C0.89543 719.585 0 720.48 0 721.585H4ZM2 4H6.00769V0H2V4ZM18.0308 4H26.0462V0H18.0308V4ZM38.0692 4H46.0846V0H38.0692V4ZM58.1077 4H66.1231V0H58.1077V4ZM78.1462 4H86.1615V0H78.1462V4ZM98.1846 4H106.2V0H98.1846V4ZM118.223 4H126.238V0H118.223V4ZM138.262 4H146.277V0H138.262V4ZM158.3 4H166.315V0H158.3V4ZM178.338 4H186.354V0H178.338V4ZM198.377 4H206.392V0H198.377V4ZM218.415 4H226.431V0H218.415V4ZM238.454 4H246.469V0H238.454V4ZM258.492 4H266.508V0H258.492V4ZM278.531 4H286.546V0H278.531V4ZM298.569 4H306.585V0H298.569V4ZM318.608 4H326.623V0H318.608V4ZM338.646 4H346.661V0H338.646V4ZM358.685 4H366.7V0H358.685V4ZM378.723 4H386.738V0H378.723V4ZM398.761 4H406.777V0H398.761V4ZM418.8 4H426.815V0H418.8V4ZM438.838 4H446.854V0H438.838V4ZM458.877 4H466.892V0H458.877V4ZM478.915 4H486.931V0H478.915V4ZM498.954 4H506.969V0H498.954V4ZM518.992 4H527.008V0H518.992V4ZM539.031 4H547.046V0H539.031V4ZM559.069 4H567.084V0H559.069V4ZM579.108 4H587.123V0H579.108V4ZM599.146 4H607.161V0H599.146V4ZM619.184 4H627.2V0H619.184V4ZM639.223 4H647.238V0H639.223V4ZM659.261 4H667.277V0H659.261V4ZM679.3 4H687.315V0H679.3V4ZM699.338 4H707.354V0H699.338V4ZM719.377 4H727.392V0H719.377V4ZM739.415 4H747.431V0H739.415V4ZM759.454 4H767.469V0H759.454V4ZM779.492 4H787.507V0H779.492V4ZM799.531 4H807.546V0H799.531V4ZM819.569 4H827.584V0H819.569V4ZM839.607 4H847.623V0H839.607V4ZM859.646 4H867.661V0H859.646V4ZM879.684 4H887.7V0H879.684V4ZM899.723 4H907.738V0H899.723V4ZM919.761 4H927.777V0H919.761V4ZM939.8 4H947.815V0H939.8V4ZM959.838 4H967.854V0H959.838V4ZM979.877 4H987.892V0H979.877V4ZM999.915 4H1007.93V0H999.915V4ZM1019.95 4H1027.97V0H1019.95V4ZM1039.99 4H1048.01V0H1039.99V4ZM1060.03 4H1068.05V0H1060.03V4ZM1080.07 4H1088.08V0H1080.07V4ZM1100.11 4H1108.12V0H1100.11V4ZM1120.15 4H1128.16V0H1120.15V4ZM1140.18 4H1148.2V0H1140.18V4ZM1160.22 4H1168.24V0H1160.22V4ZM1180.26 4H1188.28V0H1180.26V4ZM1200.3 4H1208.32V0H1200.3V4ZM1220.34 4H1228.35V0H1220.34V4ZM1240.38 4H1248.39V0H1240.38V4ZM1260.41 4H1268.43V0H1260.41V4ZM1280.45 4H1288.47V0H1280.45V4ZM1300.49 4H1308.51V0H1300.49V4ZM1320.53 4H1328.55V0H1320.53V4ZM1340.57 4H1348.58V0H1340.57V4ZM1360.61 4H1368.62V0H1360.61V4ZM1380.65 4H1388.66V0H1380.65V4ZM1400.68 4H1408.7V0H1400.68V4ZM1420.72 4H1428.74V0H1420.72V4ZM1440.76 4H1448.78V0H1440.76V4ZM1460.8 4H1468.81V0H1460.8V4ZM1480.84 4H1488.85V0H1480.84V4ZM1500.88 4H1508.89V0H1500.88V4ZM1520.91 4H1528.93V0H1520.91V4ZM1540.95 4H1548.97V0H1540.95V4ZM1560.99 4H1565V0H1560.99V4ZM1565 4C1566.1 4 1567.18 4.05681 1568.24 4.16751L1568.66 0.188931C1567.45 0.0639807 1566.23 0 1565 0V4ZM1577.61 6.67226C1579.6 7.55909 1581.48 8.64955 1583.22 9.91744L1585.57 6.68328C1583.61 5.2524 1581.49 4.02095 1579.24 3.01901L1577.61 6.67226ZM1590.08 16.7789C1591.35 18.521 1592.44 20.3998 1593.33 22.3886L1596.98 20.7595C1595.98 18.5126 1594.75 16.3912 1593.32 14.4251L1590.08 16.7789ZM1595.83 31.7562C1595.94 32.8218 1596 33.9039 1596 35H1600C1600 33.7656 1599.94 32.5455 1599.81 31.3429L1595.83 31.7562ZM1596 35V38.9667H1600V35H1596ZM1596 50.8667V58.8H1600V50.8667H1596ZM1596 70.7V78.6333H1600V70.7H1596ZM1596 90.5333V98.4667H1600V90.5333H1596ZM1596 110.367V118.3H1600V110.367H1596ZM1596 130.2V138.133H1600V130.2H1596ZM1596 150.033V157.967H1600V150.033H1596ZM1596 169.867V177.8H1600V169.867H1596ZM1596 189.7V197.633H1600V189.7H1596ZM1596 209.533V217.467H1600V209.533H1596ZM1596 229.367V237.3H1600V229.367H1596ZM1596 249.2V257.133H1600V249.2H1596ZM1596 269.033V276.967H1600V269.033H1596ZM1596 288.867V296.8H1600V288.867H1596ZM1596 308.7V316.633H1600V308.7H1596ZM1596 328.533V336.467H1600V328.533H1596ZM1596 348.367V356.3H1600V348.367H1596ZM1596 368.2V376.133H1600V368.2H1596ZM1596 388.033V395.967H1600V388.033H1596ZM1596 407.867V415.8H1600V407.867H1596ZM1596 427.7V435.633H1600V427.7H1596ZM1596 447.533V451.5H1600V447.533H1596ZM1596 451.5C1596 452.596 1595.94 453.678 1595.83 454.744L1599.81 455.157C1599.94 453.955 1600 452.734 1600 451.5H1596ZM1593.33 464.111C1592.44 466.1 1591.35 467.979 1590.08 469.721L1593.32 472.075C1594.75 470.109 1595.98 467.987 1596.98 465.74L1593.33 464.111ZM1583.22 476.583C1581.48 477.85 1579.6 478.941 1577.61 479.828L1579.24 483.481C1581.49 482.479 1583.61 481.248 1585.57 479.817L1583.22 476.583ZM1568.24 482.332C1567.18 482.443 1566.1 482.5 1565 482.5V486.5C1566.23 486.5 1567.45 486.436 1568.66 486.311L1568.24 482.332ZM1565 482.5H1561.03V486.5H1565V482.5ZM1549.1 482.5H1541.16V486.5H1549.1V482.5ZM1529.23 482.5H1521.29V486.5H1529.23V482.5ZM1509.36 482.5H1501.42V486.5H1509.36V482.5ZM1489.49 482.5H1481.55V486.5H1489.49V482.5ZM1469.62 482.5H1461.68V486.5H1469.62V482.5ZM1449.75 482.5H1441.81V486.5H1449.75V482.5ZM1429.88 482.5H1421.94V486.5H1429.88V482.5ZM1410.01 482.5H1402.06V486.5H1410.01V482.5ZM1390.14 482.5H1382.19V486.5H1390.14V482.5ZM1370.27 482.5H1362.32V486.5H1370.27V482.5ZM1350.4 482.5H1342.45V486.5H1350.4V482.5ZM1330.53 482.5H1322.58V486.5H1330.53V482.5ZM1310.66 482.5H1302.71V486.5H1310.66V482.5ZM1290.79 482.5H1282.84V486.5H1290.79V482.5ZM1270.92 482.5H1262.97V486.5H1270.92V482.5ZM1251.05 482.5H1243.1V486.5H1251.05V482.5ZM1231.18 482.5H1223.23V486.5H1231.18V482.5ZM1211.31 482.5H1203.36V486.5H1211.31V482.5ZM1191.44 482.5H1183.49V486.5H1191.44V482.5ZM1171.57 482.5H1163.62V486.5H1171.57V482.5ZM1151.7 482.5H1143.75V486.5H1151.7V482.5ZM1131.83 482.5H1123.88V486.5H1131.83V482.5ZM1111.96 482.5H1104.01V486.5H1111.96V482.5ZM1092.09 482.5H1084.14V486.5H1092.09V482.5ZM1072.22 482.5H1064.27V486.5H1072.22V482.5ZM1052.35 482.5H1044.4V486.5H1052.35V482.5ZM1032.48 482.5H1024.53V486.5H1032.48V482.5ZM1012.61 482.5H1004.66V486.5H1012.61V482.5ZM992.74 482.5H984.792V486.5H992.74V482.5ZM972.87 482.5H964.922V486.5H972.87V482.5ZM953 482.5H945.052V486.5H953V482.5ZM933.13 482.5H925.182V486.5H933.13V482.5ZM913.26 482.5H905.312V486.5H913.26V482.5ZM893.389 482.5H885.441V486.5H893.389V482.5ZM873.519 482.5H865.571V486.5H873.519V482.5ZM853.649 482.5H845.701V486.5H853.649V482.5ZM833.779 482.5H825.831V486.5H833.779V482.5ZM813.909 482.5H805.961V486.5H813.909V482.5ZM794.039 482.5H786.091V486.5H794.039V482.5ZM774.169 482.5H766.221V486.5H774.169V482.5ZM754.299 482.5H746.351V486.5H754.299V482.5ZM734.429 482.5H726.48V486.5H734.429V482.5ZM714.558 482.5H706.61V486.5H714.558V482.5ZM694.688 482.5H686.74V486.5H694.688V482.5ZM674.818 482.5H666.87V486.5H674.818V482.5ZM654.948 482.5H647V486.5H654.948V482.5ZM635.078 482.5H627.13V486.5H635.078V482.5ZM615.208 482.5H607.26V486.5H615.208V482.5ZM595.338 482.5H587.39V486.5H595.338V482.5ZM575.468 482.5H567.519V486.5H575.468V482.5ZM555.597 482.5H547.649V486.5H555.597V482.5ZM535.727 482.5H527.779V486.5H535.727V482.5ZM515.857 482.5H507.909V486.5H515.857V482.5ZM495.987 482.5H488.039V486.5H495.987V482.5ZM476.117 482.5H468.169V486.5H476.117V482.5ZM456.247 482.5H448.299V486.5H456.247V482.5ZM436.377 482.5H428.429V486.5H436.377V482.5ZM416.507 482.5H408.559V486.5H416.507V482.5ZM396.636 482.5H388.688V486.5H396.636V482.5ZM376.766 482.5H368.818V486.5H376.766V482.5ZM356.896 482.5H348.948V486.5H356.896V482.5ZM337.026 482.5H329.078V486.5H337.026V482.5ZM317.156 482.5H309.208V486.5H317.156V482.5ZM297.286 482.5H289.338V486.5H297.286V482.5ZM277.416 482.5H269.468V486.5H277.416V482.5ZM257.546 482.5H249.598V486.5H257.546V482.5ZM237.676 482.5H229.728V486.5H237.676V482.5ZM217.805 482.5H209.857V486.5H217.805V482.5ZM197.935 482.5H189.987V486.5H197.935V482.5ZM178.065 482.5H170.117V486.5H178.065V482.5ZM158.195 482.5H150.247V486.5H158.195V482.5ZM138.325 482.5H130.377V486.5H138.325V482.5ZM118.455 482.5H110.507V486.5H118.455V482.5ZM98.5847 482.5H90.6366V486.5H98.5847V482.5ZM78.7145 482.5H70.7666V486.5H78.7145V482.5ZM58.8445 482.5H50.8965V486.5H58.8445V482.5ZM38.9743 482.5H35V486.5H38.9743V482.5ZM35 482.5C33.7656 482.5 32.5455 482.564 31.3428 482.689L31.7562 486.668C32.8217 486.557 33.9039 486.5 35 486.5V482.5ZM20.7595 485.519C18.5125 486.521 16.3912 487.752 14.4251 489.183L16.7788 492.417C18.521 491.15 20.3997 490.059 22.3885 489.172L20.7595 485.519ZM6.68326 496.925C5.25239 498.891 4.02094 501.013 3.019 503.26L6.67225 504.889C7.55908 502.9 8.64954 501.021 9.91743 499.279L6.68326 496.925ZM0.18893 513.843C0.0639805 515.045 0 516.266 0 517.5H4C4 516.404 4.05681 515.322 4.16751 514.256L0.18893 513.843ZM0 517.5V521.665H4V517.5H0ZM0 534.16V542.49H4V534.16H0ZM0 554.985V563.315H4V554.985H0ZM0 575.81V584.14H4V575.81H0ZM0 596.635V604.965H4V596.635H0ZM0 617.46V625.79H4V617.46H0ZM0 638.285V646.615H4V638.285H0ZM0 659.11V667.44H4V659.11H0ZM0 679.935V688.265H4V679.935H0ZM0 700.76V709.09H4V700.76H0ZM0 721.585V725.75H4V721.585H0Z" fill="#007BFF"/>
</svg>
