<?xml version="1.0" encoding="UTF-8"?>
<svg id="Layer_1" data-name="Layer 1" xmlns="http://www.w3.org/2000/svg" xmlns:xlink="http://www.w3.org/1999/xlink" viewBox="0 0 3000 3000">
  <defs>
    <style>
      .cls-1 {
        fill: url(#linear-gradient);
      }

      .cls-2 {
        fill: #c6ecff;
      }

      .cls-3 {
        fill: url(#linear-gradient-3);
      }

      .cls-4 {
        fill: url(#linear-gradient-4);
      }

      .cls-5 {
        fill: url(#linear-gradient-2);
        opacity: .79;
      }
    </style>
    <linearGradient id="linear-gradient" x1="483.56" y1="2617.14" x2="2637.38" y2="326.69" gradientUnits="userSpaceOnUse">
      <stop offset="0" stop-color="#83e6f4"/>
      <stop offset="1" stop-color="#c6ecff"/>
    </linearGradient>
    <linearGradient id="linear-gradient-2" x1="651.71" y1="2558.52" x2="2419.78" y2="396.66" gradientUnits="userSpaceOnUse">
      <stop offset="0" stop-color="#3998cf"/>
      <stop offset="1" stop-color="#67cfff"/>
    </linearGradient>
    <linearGradient id="linear-gradient-3" x1="1288.13" y1="1930.75" x2="1288.13" y2="982.41" gradientUnits="userSpaceOnUse">
      <stop offset="0" stop-color="#83e6f4"/>
      <stop offset=".03" stop-color="#86e6f4"/>
      <stop offset=".44" stop-color="#a8edfa"/>
      <stop offset=".78" stop-color="#bef2fd"/>
      <stop offset="1" stop-color="#c6f4ff"/>
    </linearGradient>
    <linearGradient id="linear-gradient-4" x1="1971.25" y1="1930.75" x2="1971.25" y2="982.41" xlink:href="#linear-gradient-3"/>
  </defs>
  <path class="cls-1" d="M2651.78,311.29c-.85-.16-167.88-38.4-455.44-55.94-511.27-31.19-1106.91,67.32-1526.85,386.14C300.9,921.33,30,1389.42,78.61,1858.55c49.67,479.32,349.76,822.9,766.48,972.84,622.82,224.09,1343.33-58.38,1679.02-621.61,157.53-264.3,233.31-580.88,204.91-887.84-27.61-298.27-131.44-589.4-102.85-891.94,3.8-40.25,10.54-80.99,25.62-118.7Z"/>
  <path class="cls-5" d="M1290.87,2755.38c-136.13,0-268.68-22.87-393.99-67.96-381.94-137.42-624.72-445.28-666.1-844.65-19.93-192.31,22.62-397.74,123.03-594.08,94.58-184.94,239.55-357.31,408.19-485.35,159.63-121.19,356.48-213.95,585.09-275.71,205.27-55.46,436.61-84.77,669-84.77,56.94,0,114.45,1.75,170.94,5.19,117.02,7.14,213.36,17.9,285.07,27.82-16.01,205.85,20.52,400.53,55.89,589.01,20.18,107.57,39.25,209.17,48.68,311.14,25.15,271.67-40.19,554.15-183.98,795.41-111.87,187.71-275.12,345.47-472.08,456.23-195.1,109.71-412.85,167.71-629.65,167.71h-.08Z"/>
  <path class="cls-2" d="M2403.99,133.15s251.15,22.77,523.05-41.52c0,0-138.63,176.81-82.38,703.21,0,0-122.11-271.01-43.53-606.77,0,0-198.91,28.13-397.14-54.92Z"/>
  <path class="cls-3" d="M1307.2,917.73c-95.13-3.59-180.75,219.53-191.29,498.35-10.53,278.82,58.01,507.77,153.14,511.36,95.13,3.59,180.75-219.53,191.29-498.35,10.53-278.82-58.01-507.77-153.14-511.36Zm-2.68,942.4c39.09-75.55,68.71-216.39,74.83-378.59,9.22-244.09-38.29-444.06-106.15-446.62-25.41-.96-50.12,26-71.52,72.89,27.93-84.35,64.77-136.16,103.42-134.7,75.18,2.84,128.47,206.38,119.1,454.62-7.96,210.79-58.55,386.05-119.68,432.4Z"/>
  <path class="cls-4" d="M1990.32,917.73c-95.13-3.59-180.75,219.53-191.29,498.35-10.53,278.82,58.01,507.77,153.14,511.36,95.13,3.59,180.75-219.53,191.29-498.35,10.53-278.82-58.01-507.77-153.14-511.36Zm-2.68,942.4c39.09-75.55,68.71-216.39,74.83-378.59,9.22-244.09-38.29-444.06-106.15-446.62-25.41-.96-50.12,26-71.52,72.89,27.93-84.35,64.77-136.16,103.42-134.7,75.18,2.84,128.47,206.38,119.1,454.62-7.96,210.79-58.55,386.05-119.68,432.4Z"/>
</svg>