<?xml version="1.0" encoding="UTF-8"?>
<svg id="Layer_1" data-name="Layer 1" xmlns="http://www.w3.org/2000/svg" xmlns:xlink="http://www.w3.org/1999/xlink" viewBox="0 0 3000 702.28">
  <defs>
    <style>
      .cls-1 {
        fill: url(#linear-gradient);
      }

      .cls-2 {
        fill: #fff;
      }

      .cls-3 {
        fill: #c6ecff;
      }

      .cls-4 {
        fill: url(#linear-gradient-3);
      }

      .cls-5 {
        fill: url(#linear-gradient-4);
      }

      .cls-6 {
        fill: url(#linear-gradient-2);
        opacity: .79;
      }
    </style>
    <linearGradient id="linear-gradient" x1="141.04" y1="562.4" x2="548.35" y2="129.25" gradientUnits="userSpaceOnUse">
      <stop offset="0" stop-color="#83e6f4"/>
      <stop offset="1" stop-color="#c6ecff"/>
    </linearGradient>
    <linearGradient id="linear-gradient-2" x1="172.84" y1="551.32" x2="507.2" y2="142.49" gradientUnits="userSpaceOnUse">
      <stop offset="0" stop-color="#3998cf"/>
      <stop offset="1" stop-color="#67cfff"/>
    </linearGradient>
    <linearGradient id="linear-gradient-3" x1="293.19" y1="432.6" x2="293.19" y2="253.26" gradientUnits="userSpaceOnUse">
      <stop offset="0" stop-color="#83e6f4"/>
      <stop offset=".03" stop-color="#86e6f4"/>
      <stop offset=".44" stop-color="#a8edfa"/>
      <stop offset=".78" stop-color="#bef2fd"/>
      <stop offset="1" stop-color="#c6f4ff"/>
    </linearGradient>
    <linearGradient id="linear-gradient-4" x1="422.38" y1="432.6" x2="422.38" y2="253.26" xlink:href="#linear-gradient-3"/>
  </defs>
  <g>
    <path class="cls-1" d="M551.07,126.34c-.16-.03-31.75-7.26-86.13-10.58-96.69-5.9-209.33,12.73-288.74,73.02-69.7,52.92-120.94,141.44-111.74,230.16,9.39,90.65,66.14,155.62,144.95,183.97,117.78,42.38,254.04-11.04,317.52-117.55,29.79-49.98,44.12-109.85,38.75-167.9-5.22-56.41-24.86-111.46-19.45-168.68,.72-7.61,1.99-15.32,4.85-22.45Z"/>
    <path class="cls-6" d="M293.71,588.55c-25.74,0-50.81-4.33-74.51-12.85-72.23-25.99-118.14-84.21-125.97-159.73-3.77-36.37,4.28-75.22,23.27-112.35,17.89-34.98,45.3-67.57,77.19-91.78,30.19-22.92,67.41-40.46,110.65-52.14,38.82-10.49,82.57-16.03,126.52-16.03,10.77,0,21.64,.33,32.33,.98,22.13,1.35,40.35,3.38,53.91,5.26-3.03,38.93,3.88,75.75,10.57,111.39,3.82,20.34,7.42,39.56,9.21,58.84,4.76,51.38-7.6,104.8-34.79,150.42-21.16,35.5-52.03,65.33-89.28,86.28-36.9,20.75-78.07,31.72-119.07,31.72h-.02Z"/>
    <path class="cls-3" d="M504.21,92.65s47.49,4.31,98.92-7.85c0,0-26.22,33.44-15.58,132.98,0,0-23.09-51.25-8.23-114.75,0,0-37.62,5.32-75.1-10.39Z"/>
    <path class="cls-4" d="M296.8,241.03c-17.99-.68-34.18,41.51-36.17,94.24-1.99,52.73,10.97,96.02,28.96,96.7,17.99,.68,34.18-41.51,36.17-94.24,1.99-52.73-10.97-96.02-28.96-96.7Zm-.51,178.22c7.39-14.29,12.99-40.92,14.15-71.6,1.74-46.16-7.24-83.98-20.07-84.46-4.81-.18-9.48,4.92-13.52,13.78,5.28-15.95,12.25-25.75,19.56-25.47,14.22,.54,24.3,39.03,22.52,85.97-1.51,39.86-11.07,73.01-22.63,81.77Z"/>
    <path class="cls-5" d="M425.98,241.03c-17.99-.68-34.18,41.51-36.17,94.24-1.99,52.73,10.97,96.02,28.96,96.7,17.99,.68,34.18-41.51,36.17-94.24,1.99-52.73-10.97-96.02-28.96-96.7Zm-.51,178.22c7.39-14.29,12.99-40.92,14.15-71.6,1.74-46.16-7.24-83.98-20.07-84.46-4.81-.18-9.48,4.92-13.52,13.78,5.28-15.95,12.25-25.75,19.56-25.47,14.22,.54,24.3,39.03,22.52,85.97-1.51,39.86-11.07,73.01-22.63,81.77Z"/>
  </g>
  <path class="cls-2" d="M805.89,517.92v-208.12h-75.22v-56.42h217.31v56.42h-75.22v208.12h-66.87Z"/>
  <path class="cls-2" d="M1044.09,517.92h-66.87V237.09h66.87v114.51h1.25c3.9-12.54,11.07-22.21,21.52-29.05,10.45-6.82,24.17-10.24,41.16-10.24s29.46,2.65,39.91,7.94c10.45,5.3,18.25,14.56,23.4,27.79,5.15,13.24,7.73,31.83,7.73,55.79v114.09h-66.87l-.42-101.13c0-15.6-2.37-26.75-7.1-33.43-4.74-6.69-13.65-10.03-26.75-10.03-11.7,0-20.2,3.07-25.49,9.19-5.3,6.13-8.08,16.44-8.36,30.92v104.48Z"/>
  <path class="cls-2" d="M1403.91,511.23c-7.8,2.79-18.6,5.23-32.39,7.32-13.79,2.09-30.16,3.13-49.1,3.13-23.96,0-44.37-3.13-61.22-9.4-16.86-6.27-29.61-16.99-38.24-32.18-8.64-15.18-12.96-36.29-12.96-63.31,0-36.78,8.42-63.38,25.28-79.82,16.85-16.44,42.97-24.66,78.36-24.66,25.35,0,45.34,3.62,59.97,10.87,14.63,7.25,25.07,17.49,31.34,30.71,6.27,13.24,9.4,28.91,9.4,47.02,0,5.29-.21,11.01-.63,17.13-.42,6.13-1.19,12.12-2.3,17.97l-1.67,1.67h-137.49c1.95,12.26,7.73,20.34,17.34,24.24,9.61,3.9,25.28,5.85,47.02,5.85,14.48,0,26.54-.35,36.15-1.04,9.61-.69,19.43-1.74,29.46-3.14l1.67,1.25v46.39Zm-47.64-117.43c0-6.69-1.04-12.47-3.13-17.34-2.09-4.87-6.2-8.63-12.33-11.28-6.13-2.64-15.19-3.97-27.16-3.97-17.55,0-29.04,3-34.48,8.99-5.43,5.99-8.15,13.86-8.15,23.61h85.25Z"/>
  <path class="cls-2" d="M1715.92,460.67v52.66c-13.37,2.79-26.47,4.88-39.28,6.27-12.82,1.4-28,2.09-45.55,2.09-22.57,0-41.58-1.95-57.04-5.85-15.46-3.9-27.86-10.79-37.19-20.69-9.34-9.89-16.09-23.89-20.27-42-4.18-18.11-6.27-41.37-6.27-69.79s2.09-49.73,6.27-67.28c4.18-17.55,10.93-31.14,20.27-40.75,9.33-9.61,21.73-16.3,37.19-20.06,15.46-3.76,34.48-5.64,57.04-5.64,17.55,0,32.73,.63,45.55,1.88,12.81,1.25,25.91,3.42,39.28,6.48v54.33l-1.25,.83c-11.7-2.78-22.99-4.81-33.85-6.06-10.87-1.25-24.24-1.88-40.12-1.88-12.82,0-23.34,.91-31.55,2.72-8.22,1.82-14.7,5.37-19.43,10.66-4.74,5.29-8.01,13.1-9.82,23.4-1.82,10.31-2.72,24.1-2.72,41.37s.9,32.67,2.72,43.67c1.81,11.01,5.08,19.3,9.82,24.87,4.73,5.58,11.21,9.34,19.43,11.28,8.21,1.95,18.73,2.93,31.55,2.93,15.6,0,28.9-.48,39.91-1.46,11-.97,22.08-2.85,33.22-5.64l2.09,1.67Z"/>
  <path class="cls-2" d="M1818.3,517.92h-66.87V237.09h66.87v114.51h1.25c3.9-12.54,11.07-22.21,21.52-29.05,10.45-6.82,24.17-10.24,41.16-10.24s29.46,2.65,39.91,7.94c10.45,5.3,18.25,14.56,23.4,27.79,5.15,13.24,7.73,31.83,7.73,55.79v114.09h-66.87l-.42-101.13c0-15.6-2.37-26.75-7.1-33.43-4.74-6.69-13.65-10.03-26.75-10.03-11.7,0-20.2,3.07-25.49,9.19-5.3,6.13-8.08,16.44-8.36,30.92v104.48Z"/>
  <path class="cls-2" d="M1984.21,417.62c0-37.33,7.94-64.21,23.82-80.66,15.88-16.44,42.76-24.66,80.66-24.66,25.35,0,45.69,3.62,61.02,10.87,15.32,7.25,26.39,18.6,33.22,34.06,6.82,15.46,10.24,35.59,10.24,60.39s-3.41,44.44-10.24,59.76c-6.83,15.32-17.9,26.54-33.22,33.64-15.33,7.1-35.67,10.66-61.02,10.66-37.89,0-64.78-8.15-80.66-24.45s-23.82-42.84-23.82-79.61Zm104.48,46.81c16.16,0,27.09-3.55,32.81-10.66,5.71-7.1,8.57-19.57,8.57-37.4s-2.86-29.18-8.57-36.57c-5.71-7.38-16.65-11.07-32.81-11.07s-26.4,3.7-32.39,11.07c-5.99,7.38-8.99,19.58-8.99,36.57,0,17.83,2.99,30.3,8.99,37.4,5.99,7.1,16.78,10.66,32.39,10.66Z"/>
  <path class="cls-2" d="M2291.79,238.76c.83,10.03,1.25,18.39,1.25,25.07,0,3.9-.07,7.87-.21,11.91-.14,4.04-.49,8.57-1.04,13.58-5.85,1.11-11.57,1.95-17.13,2.51-5.58,.56-11.15,.83-16.72,.83s-10.66-.27-16.09-.83c-5.43-.55-10.94-1.39-16.51-2.51-.56-4.73-.98-9.12-1.25-13.16-.28-4.03-.42-8.01-.42-11.91,0-3.62,.14-7.52,.42-11.7,.27-4.18,.69-8.78,1.25-13.79,5.57-1.39,11.21-2.3,16.93-2.72,5.71-.42,11.35-.63,16.93-.63,5.29,0,10.66,.21,16.09,.63,5.43,.42,10.93,1.33,16.51,2.72Zm0,279.16h-66.87v-203.52h66.87v203.52Z"/>
  <path class="cls-2" d="M2496.56,458.99v54.33c-6.97,2.79-17.28,4.88-30.93,6.27-13.65,1.4-28.14,2.09-43.46,2.09-22.01,0-40.33-3.06-54.95-9.19-14.63-6.12-25.49-16.72-32.6-31.76-7.1-15.05-10.8-35.94-11.07-62.69,0-27.58,3.83-49.03,11.49-64.36,7.66-15.32,18.87-26.05,33.64-32.18,14.76-6.12,32.45-9.19,53.07-9.19,12.26,0,25.21,.83,38.87,2.51,13.65,1.67,24.79,3.9,33.43,6.69l.42,56-1.25,.83c-8.36-1.67-17.28-2.92-26.75-3.76-9.48-.83-18.81-1.25-28-1.25-18.67,0-31.62,3.49-38.87,10.45-7.25,6.97-10.86,18.67-10.86,35.11,0,12.54,1.53,21.88,4.6,28,3.06,6.13,8.21,10.17,15.46,12.12,7.24,1.95,17.13,2.93,29.67,2.93,9.75,0,19.08-.42,28-1.25,8.91-.83,18.39-1.81,28.42-2.92l1.67,1.25Z"/>
  <path class="cls-2" d="M2713.45,511.23c-7.8,2.79-18.6,5.23-32.39,7.32-13.79,2.09-30.16,3.13-49.11,3.13-23.96,0-44.37-3.13-61.22-9.4-16.86-6.27-29.61-16.99-38.24-32.18-8.64-15.18-12.95-36.29-12.95-63.31,0-36.78,8.42-63.38,25.28-79.82,16.85-16.44,42.97-24.66,78.36-24.66,25.35,0,45.34,3.62,59.97,10.87,14.63,7.25,25.07,17.49,31.34,30.71,6.27,13.24,9.4,28.91,9.4,47.02,0,5.29-.21,11.01-.63,17.13-.42,6.13-1.19,12.12-2.3,17.97l-1.67,1.67h-137.49c1.95,12.26,7.73,20.34,17.34,24.24,9.61,3.9,25.28,5.85,47.01,5.85,14.48,0,26.54-.35,36.15-1.04,9.61-.69,19.43-1.74,29.46-3.14l1.67,1.25v46.39Zm-47.64-117.43c0-6.69-1.05-12.47-3.13-17.34-2.09-4.87-6.2-8.63-12.33-11.28-6.13-2.64-15.19-3.97-27.16-3.97-17.55,0-29.05,3-34.48,8.99-5.43,5.99-8.15,13.86-8.15,23.61h85.25Z"/>
  <path class="cls-2" d="M2750.22,460.25c21.73,6.13,45.83,9.19,72.3,9.19,12.81,0,22.42-.42,28.83-1.25,6.41-.83,10.72-2.22,12.96-4.18,2.23-1.95,3.34-4.6,3.34-7.94,0-4.73-1.74-7.66-5.23-8.78-3.48-1.11-10.38-2.64-20.69-4.6l-33.01-6.27c-21.18-4.18-36.43-10.79-45.76-19.85-9.34-9.05-14-22.63-14-40.75,0-24.51,7.32-41.23,21.94-50.15,14.63-8.91,37.96-13.37,70-13.37,19.22,0,36.15,1.04,50.78,3.13,14.63,2.09,26.81,4.67,36.57,7.73l-.83,50.57-1.25,1.25c-22.57-7.24-47.22-10.86-73.97-10.86-13.1,0-22.22,.91-27.37,2.72-5.16,1.82-7.73,5.37-7.73,10.66,0,2.79,.77,5.01,2.3,6.69,1.53,1.67,5.08,3.28,10.66,4.81,5.57,1.53,14.35,3.41,26.33,5.64l30.51,5.85c16.99,3.62,29.53,9.61,37.61,17.97,8.08,8.36,12.12,21.59,12.12,39.7,0,15.88-2.92,28.49-8.78,37.82-5.85,9.34-15.67,15.95-29.46,19.85-13.79,3.9-32.8,5.85-57.04,5.85-18.39,0-35.31-.9-50.78-2.72-15.46-1.81-29.33-3.97-41.58-6.48v-51.4l1.25-.83Z"/>
</svg>