<svg width="68" height="68" viewBox="0 0 68 68" fill="none" xmlns="http://www.w3.org/2000/svg">
<circle cx="34" cy="34" r="34" fill="url(#paint0_linear_127_467)"/>
<path d="M24.2239 50C22.9439 50 21.7759 49.68 20.7199 49.04C19.6639 48.4 18.8159 47.552 18.1759 46.496C17.5359 45.44 17.2159 44.288 17.2159 43.04V40.352H24.5599V42.656H43.8079V36.272H22.8799V28.928H42.5119V22.784H24.5599V25.472H17.2159V22.4C17.2159 21.12 17.5359 19.952 18.1759 18.896C18.8159 17.84 19.6639 17.008 20.7199 16.4C21.7759 15.76 22.9439 15.44 24.2239 15.44H42.8959C44.1759 15.44 45.3439 15.76 46.3999 16.4C47.4559 17.008 48.2879 17.84 48.8959 18.896C49.5359 19.952 49.8559 21.12 49.8559 22.4V29.312C49.8559 29.664 49.8239 30.048 49.7599 30.464C49.7279 30.848 49.6639 31.2 49.5679 31.52C50.0479 32.096 50.4319 32.768 50.7199 33.536C51.0079 34.272 51.1519 35.056 51.1519 35.888V43.04C51.1519 44.288 50.8319 45.44 50.1919 46.496C49.5839 47.552 48.7519 48.4 47.6959 49.04C46.6399 49.68 45.4719 50 44.1919 50H24.2239Z" fill="white"/>
<defs>
<linearGradient id="paint0_linear_127_467" x1="-4.86041e-07" y1="-9" x2="82" y2="65" gradientUnits="userSpaceOnUse">
<stop stop-color="#6F2DA8"/>
<stop offset="1" stop-color="#2C1242"/>
</linearGradient>
</defs>
</svg>
