<svg width="60" height="60" viewBox="0 0 60 60" fill="none" xmlns="http://www.w3.org/2000/svg">
<path d="M18.2993 2.36719V57.6323C7.54471 53.0732 0 42.4174 0 29.9997C0 17.5821 7.54471 6.92633 18.2993 2.36719Z" fill="#002395"/>
<path d="M60.0001 29.9997C60.0001 42.4174 52.4554 53.0732 41.7007 57.6323V2.36719C52.4554 6.92633 60.0001 17.5821 60.0001 29.9997Z" fill="#D70228"/>
<path d="M41.7006 2.36743V57.6326C38.1063 59.1575 34.1512 60 29.9999 60C25.8487 60 21.8935 59.1575 18.2993 57.6326V2.36743C21.8935 0.842489 25.8487 0 29.9999 0C34.1512 0 38.1063 0.842489 41.7006 2.36743Z" fill="white"/>
</svg>
