<svg width="60" height="60" viewBox="0 0 60 60" fill="none" xmlns="http://www.w3.org/2000/svg">
<path d="M30.02 59.96C46.5599 59.96 59.9681 46.5518 59.9681 30.0119C59.9681 13.4721 46.5599 0.0638428 30.02 0.0638428C13.4802 0.0638428 0.0719299 13.4721 0.0719299 30.0119C0.0719299 46.5518 13.4802 59.96 30.02 59.96Z" fill="white"/>
<path d="M0 27.5417C0.0877049 27.5166 0.126859 27.4477 0.117462 27.3678C-0.0344555 26.223 0.841028 25.8095 1.57712 25.2864C1.81361 25.1173 1.93577 25.2895 2.08456 25.3945C2.77367 25.8863 3.45808 26.3859 4.28345 26.9841C3.98745 26.057 3.77131 25.2927 3.49567 24.5503C3.34845 24.1541 3.39544 23.9254 3.76192 23.6858C4.4291 23.2504 5.05869 22.7555 5.68829 22.1604C4.88955 22.1604 4.08924 22.1322 3.29207 22.1713C2.83788 22.1948 2.59669 22.0554 2.54501 21.6012C2.53874 21.5449 2.51056 21.4885 2.48394 21.4384C1.71025 19.9756 1.94987 18.6036 2.92403 17.2786C3.30147 17.5449 3.72276 17.8425 4.20201 18.1792C4.14719 17.6201 3.93107 17.1706 3.78541 16.7054C3.50664 15.8143 3.78228 14.9576 4.55753 14.3828C4.93027 14.1056 5.30772 13.8331 5.71179 13.5355C5.51602 13.3539 5.27483 13.4964 5.05557 13.357C6.61233 11.014 8.45413 8.95451 10.7094 7.20825C10.4901 7.91458 10.2693 8.62092 9.99366 9.5058C10.8096 8.91536 11.4893 8.44551 12.1409 7.93964C12.4243 7.71881 12.6185 7.72821 12.8989 7.94434C13.5567 8.45491 14.2442 8.92632 15.0414 9.5011C14.7485 8.5849 14.5214 7.80495 14.2442 7.04223C14.1095 6.67105 14.1518 6.44866 14.4964 6.22157C15.1729 5.77364 15.8182 5.2756 16.6076 4.70239H14.1189C15.1025 3.91461 16.1769 3.35236 17.2779 2.8371C21.1306 1.03131 25.1838 0.108847 29.4313 0.000781767C29.8808 -0.0101813 30.0186 0.0900528 30.0123 0.563033C29.9888 2.55362 30.0123 4.54421 30.0201 6.5348C30.0201 9.14089 30.0201 11.7454 30.0201 14.3515C30.0201 16.956 30.0201 19.5605 30.0201 22.1651C30.0139 24.7712 30.0076 27.3772 29.9998 29.9833C29.7852 29.9896 29.5722 30.0021 29.3576 30.0021C19.5723 30.0021 9.78536 30.0021 0 30.0021V27.5417ZM20.8628 9.37737C21.5143 8.92162 22.1878 8.4925 22.8095 7.99916C23.1682 7.71568 23.4172 7.73447 23.7602 8.00855C24.3522 8.48153 24.9818 8.90909 25.7226 9.44629C25.5472 8.50346 25.2606 7.77989 25.0037 7.0532C24.8596 6.64756 24.9536 6.4283 25.295 6.19964C25.9622 5.75172 26.6012 5.25994 27.3874 4.6883C26.3569 4.6883 25.5049 4.67577 24.6529 4.69456C24.3491 4.70082 24.2097 4.60999 24.1204 4.30772C23.873 3.47296 23.5832 2.64916 23.2747 1.71573C22.9912 2.58494 22.7046 3.33044 22.512 4.09785C22.3851 4.60059 22.1345 4.72118 21.6568 4.69769C20.8879 4.6601 20.1142 4.68673 19.1808 4.68673C19.9779 5.26934 20.6326 5.77834 21.3201 6.23723C21.6412 6.45179 21.6772 6.64599 21.5676 6.99995C21.3217 7.79086 20.9395 8.54418 20.8691 9.38521C20.8456 9.39304 20.8221 9.40243 20.8002 9.41026C20.8111 9.41183 20.8252 9.41966 20.8299 9.41496C20.8424 9.404 20.8518 9.38834 20.8612 9.37424L20.8628 9.37737ZM10.0704 26.8291C10.8566 26.4814 11.4753 25.8847 12.1659 25.3976C12.4369 25.2065 12.6076 25.1987 12.8723 25.4023C13.5441 25.9223 14.2442 26.4047 15.0461 26.9841C14.7485 26.0617 14.512 25.2629 14.2301 24.483C14.1017 24.1259 14.1706 23.9254 14.4838 23.714C15.1667 23.2535 15.8198 22.7524 16.4854 22.2684C15.6052 22.1604 14.772 22.1416 13.9419 22.1682C13.5864 22.1792 13.4345 22.0633 13.3343 21.7218C13.0978 20.9106 12.8128 20.115 12.5074 19.1909C12.2066 20.1275 11.9373 20.92 11.7023 21.7203C11.6052 22.0523 11.4533 22.1807 11.0947 22.1682C10.2521 22.14 9.40792 22.1588 8.40401 22.1588C9.21842 22.7524 9.88247 23.2582 10.5684 23.7297C10.8535 23.9254 10.9255 24.0946 10.8112 24.4454C10.5528 25.2379 10.2223 26.01 10.0798 26.8369C10.0751 26.8494 10.0704 26.862 10.0657 26.8745C10.0657 26.8588 10.0688 26.8447 10.0704 26.8291ZM25.6662 26.8353C25.6913 26.8557 25.7163 26.8761 25.7398 26.8964C25.7398 26.8776 25.7398 26.8604 25.7414 26.8416L25.6568 26.8479C25.7821 26.649 25.6427 26.4798 25.5879 26.3044C25.4015 25.7093 25.234 25.1079 25.0053 24.53C24.8471 24.1275 24.9473 23.9098 25.295 23.678C25.9638 23.2316 26.5981 22.7351 27.3843 22.1588C26.3679 22.1588 25.5331 22.14 24.7015 22.1682C24.3397 22.1807 24.1956 22.0539 24.0954 21.714C23.8589 20.9027 23.5723 20.1056 23.2731 19.1988C22.9912 20.057 22.714 20.7884 22.5182 21.5386C22.3867 22.046 22.1518 22.2105 21.6271 22.1713C20.8659 22.1165 20.097 22.1572 19.1682 22.1572C19.9873 22.7555 20.6514 23.2645 21.342 23.7344C21.6349 23.9333 21.685 24.1102 21.577 24.4517C21.3264 25.2441 20.9552 26.0022 20.8675 26.8416C20.8456 26.8557 20.8252 26.8698 20.8033 26.8823C20.8158 26.8823 20.8362 26.887 20.8393 26.8808C20.8487 26.8667 20.8518 26.8479 20.8565 26.8291C21.6146 26.461 22.2316 25.8894 22.9098 25.407C23.2026 25.1987 23.3859 25.2081 23.6631 25.4195C24.3146 25.9113 24.9959 26.3639 25.6662 26.8322V26.8353ZM25.6459 18.068C25.6772 18.0883 25.7085 18.1087 25.7398 18.1306C25.7257 18.093 25.7116 18.0539 25.6975 18.0163C25.4626 17.2552 25.2465 16.4877 24.9849 15.736C24.8628 15.3836 24.9254 15.1894 25.2402 14.9795C25.9246 14.5222 26.5762 14.0163 27.3859 13.4228C26.407 13.4228 25.613 13.393 24.8221 13.4337C24.3632 13.4572 24.169 13.2896 24.0499 12.8621C23.8369 12.0947 23.566 11.3429 23.2747 10.4486C22.9787 11.3601 22.7077 12.1119 22.4979 12.8793C22.3788 13.3178 22.1643 13.4557 21.7179 13.4337C20.9349 13.3961 20.1486 13.4228 19.3624 13.4228C20.0155 14.0398 20.6811 14.5426 21.3687 15.014C21.6443 15.2019 21.6897 15.3742 21.577 15.6874C21.2982 16.4674 21.0648 17.263 20.8127 18.0539C21.483 17.7156 22.0891 17.3538 22.6028 16.8887C23.1118 16.4267 23.4814 16.483 23.9795 16.9028C24.4947 17.3366 25.0288 17.7689 25.6443 18.0696L25.6459 18.068ZM15.0524 18.2528C14.7517 17.3178 14.5261 16.5332 14.2426 15.772C14.1001 15.3883 14.1816 15.18 14.512 14.9576C15.1839 14.505 15.826 14.0101 16.631 13.4228C15.6788 13.4228 14.9051 13.3914 14.1346 13.4337C13.6412 13.4619 13.4048 13.3053 13.2763 12.8198C13.0774 12.0665 12.8034 11.3319 12.5167 10.4549C12.2254 11.3398 11.942 12.0492 11.765 12.7838C11.6397 13.3069 11.3969 13.4635 10.8801 13.4337C10.1221 13.3899 9.35937 13.4228 8.59822 13.4228C9.1636 13.9741 9.71959 14.4376 10.332 14.8072C10.841 15.1142 10.949 15.4212 10.7298 15.9834C10.4651 16.6647 10.2004 17.3617 10.0563 18.1995C10.7673 17.6843 11.4016 17.263 11.989 16.7837C12.3648 16.4768 12.6405 16.4439 13.032 16.7681C13.6303 17.263 14.2818 17.6921 15.0508 18.2512L15.0524 18.2528Z" fill="#002395"/>
<path d="M27.5395 60.0025C26.8739 59.7003 26.144 59.7676 25.4471 59.658C20.3148 58.842 15.6946 56.853 11.5866 53.6705C11.5459 53.6392 11.5192 53.586 11.4535 53.5014H48.4931C48.5526 53.6486 48.4007 53.6862 48.3208 53.7473C43.6803 57.2978 38.454 59.3526 32.6311 59.8804C32.5246 59.8898 32.3883 59.8396 32.3445 60.001H27.5395V60.0025Z" fill="#D70228"/>
<path d="M29.9981 37.8383C39.4295 37.8383 48.8625 37.8383 58.2939 37.8383C58.7418 37.8383 58.9037 38.0503 58.7794 38.4742C58.0778 40.8391 57.1021 43.0834 55.8617 45.2181C55.669 45.5485 55.4607 45.666 55.077 45.666C38.3614 45.6566 21.6442 45.6566 4.92861 45.666C4.5496 45.666 4.3366 45.5579 4.1424 45.2243C2.88947 43.0756 1.92002 40.8078 1.19646 38.4288C1.0555 37.9652 1.09153 37.8258 1.64282 37.8258C11.0946 37.8446 20.5464 37.8399 29.9981 37.8399V37.8383Z" fill="#D70228"/>
<path d="M30.0013 29.9828C30.0076 27.3767 30.0139 24.7706 30.0217 22.1645C39.4296 22.1645 48.836 22.1692 58.2439 22.152C58.7764 22.152 59.0207 22.2647 59.146 22.8223C59.644 25.0368 59.9541 27.2702 59.9995 29.5411C60.0058 29.8763 59.9588 30.0125 59.5689 30.0125C49.7522 30 39.9339 30.0016 30.1172 30C30.0781 30 30.0405 29.989 30.0013 29.9843V29.9828Z" fill="#D70228"/>
<path d="M30.02 14.3509C30.02 11.7448 30.02 9.14031 30.02 6.53422C36.0529 6.53422 42.0857 6.53735 48.1186 6.52795C48.5132 6.52795 48.8155 6.62819 49.1209 6.88504C51.4999 8.88346 53.55 11.1685 55.2274 13.7855C55.3292 13.9437 55.4795 14.0815 55.4905 14.3494H30.0185L30.02 14.3509Z" fill="#D70228"/>
<path d="M20.8627 9.37732C20.8518 9.39141 20.844 9.40708 20.8314 9.41804C20.8267 9.42274 20.8111 9.41491 20.8017 9.41334C20.8252 9.40551 20.8487 9.39611 20.8706 9.38828L20.8627 9.37732Z" fill="#EFEEEE"/>
<path d="M25.6974 18.017C25.7115 18.0546 25.7256 18.0937 25.7397 18.1313C25.7084 18.1109 25.6771 18.0906 25.6458 18.0702C25.663 18.053 25.6802 18.0358 25.6974 18.017Z" fill="#EFEEEE"/>
<path d="M10.0704 26.8295C10.0704 26.8452 10.0672 26.8593 10.0657 26.8749C10.0704 26.8624 10.0751 26.8499 10.0798 26.8374L10.0704 26.8295Z" fill="#EFEEEE"/>
<path d="M20.8564 26.8336C20.8501 26.8508 20.8485 26.8696 20.8391 26.8853C20.8345 26.8916 20.8157 26.8853 20.8031 26.8869C20.8251 26.8728 20.8454 26.8587 20.8673 26.8461L20.858 26.8352L20.8564 26.8336Z" fill="#EFEEEE"/>
<path d="M25.6584 26.8491L25.7429 26.8428C25.7429 26.8616 25.7429 26.8788 25.7414 26.8976C25.7163 26.8773 25.6912 26.8569 25.6678 26.8365L25.6599 26.8506L25.6584 26.8491Z" fill="#EFEEEE"/>
</svg>
