<svg width="60" height="60" viewBox="0 0 60 60" fill="none" xmlns="http://www.w3.org/2000/svg">
<path d="M57.6328 18.2993H2.36761C6.92676 7.54472 17.5826 0 30.0002 0C42.4178 0 53.0736 7.54472 57.6328 18.2993Z" fill="#D70228"/>
<path d="M30.0002 60.0005C17.5826 60.0005 6.92676 52.4558 2.36761 41.7012H57.6328C53.0736 52.4558 42.4178 60.0005 30.0002 60.0005Z" fill="#D70228"/>
<path d="M57.6326 41.7008H2.36743C0.84248 38.1065 0 34.1513 0 30.0001C0 25.8489 0.84248 21.8937 2.36743 18.2994H57.6326C59.1575 21.8937 60 25.8489 60 30.0001C60 34.1513 59.1575 38.1065 57.6326 41.7008Z" fill="#F4AD21"/>
</svg>
