<svg width="68" height="68" viewBox="0 0 68 68" fill="none" xmlns="http://www.w3.org/2000/svg">
<path d="M31.8337 0.0862612C51.761 -1.38769 69.3613 16.2465 67.9169 36.199C66.5948 65.3144 28.5019 79.1689 9.13286 57.2246C-10.5622 36.85 3.70443 1.61165 31.8337 0.0862612ZM33.9321 56.2118C39.7841 49.5994 45.3188 42.9356 49.1292 34.9893C53.9356 25.8299 47.2985 14.221 37.4589 12.3284C27.0327 9.74766 15.8462 19.2601 17.2569 30.1099C19.6105 40.3619 27.4314 48.2833 33.9321 56.2118Z" fill="url(#paint0_linear_127_461)"/>
<path d="M33.9377 34.874C25.5939 34.812 25.6418 22.098 34.0068 22.1211C42.3028 22.2062 42.2602 34.8634 33.9377 34.874Z" fill="url(#paint1_linear_127_461)"/>
<defs>
<linearGradient id="paint0_linear_127_461" x1="-4.86041e-07" y1="-9" x2="82" y2="65" gradientUnits="userSpaceOnUse">
<stop stop-color="#6F2DA8"/>
<stop offset="1" stop-color="#2C1242"/>
</linearGradient>
<linearGradient id="paint1_linear_127_461" x1="27.7064" y1="20.4331" x2="43.0501" y2="34.003" gradientUnits="userSpaceOnUse">
<stop stop-color="#6F2DA8"/>
<stop offset="1" stop-color="#2C1242"/>
</linearGradient>
</defs>
</svg>
