<svg width="68" height="68" viewBox="0 0 68 68" fill="none" xmlns="http://www.w3.org/2000/svg">
<circle cx="34" cy="34" r="34" fill="url(#paint0_linear_127_466)"/>
<path d="M24.3221 50C23.0421 50 21.8741 49.68 20.8181 49.04C19.7621 48.4 18.9141 47.552 18.2741 46.496C17.6341 45.44 17.3141 44.288 17.3141 43.04V40.352H24.6581V42.656H43.9061V36.176H17.3141V15.44H51.2501V22.784H24.6581V28.784H44.2421C45.5221 28.784 46.6901 29.104 47.7461 29.744C48.8021 30.352 49.6501 31.184 50.2901 32.24C50.9301 33.296 51.2501 34.464 51.2501 35.744V43.04C51.2501 44.288 50.9301 45.44 50.2901 46.496C49.6501 47.552 48.8021 48.4 47.7461 49.04C46.6901 49.68 45.5221 50 44.2421 50H24.3221Z" fill="white"/>
<defs>
<linearGradient id="paint0_linear_127_466" x1="-4.86041e-07" y1="-9" x2="82" y2="65" gradientUnits="userSpaceOnUse">
<stop stop-color="#6F2DA8"/>
<stop offset="1" stop-color="#2C1242"/>
</linearGradient>
</defs>
</svg>
