<svg width="68" height="68" viewBox="0 0 68 68" fill="none" xmlns="http://www.w3.org/2000/svg">
<circle cx="34" cy="34" r="34" fill="url(#paint0_linear_127_464)"/>
<path d="M17.3141 50V36.608C17.3141 35.328 17.6341 34.16 18.2741 33.104C18.9141 32.048 19.7621 31.216 20.8181 30.608C21.8741 29.968 23.0421 29.648 24.3221 29.648H43.9061V22.784H24.6581V25.568H17.3141V22.4C17.3141 21.12 17.6341 19.952 18.2741 18.896C18.9141 17.84 19.7621 17.008 20.8181 16.4C21.8741 15.76 23.0421 15.44 24.3221 15.44H44.2421C45.5221 15.44 46.6901 15.76 47.7461 16.4C48.8021 17.008 49.6501 17.84 50.2901 18.896C50.9301 19.952 51.2501 21.12 51.2501 22.4V30.032C51.2501 31.312 50.9301 32.48 50.2901 33.536C49.6501 34.592 48.8021 35.44 47.7461 36.08C46.6901 36.72 45.5221 37.04 44.2421 37.04H24.6581V42.656H51.2501V50H17.3141Z" fill="white"/>
<defs>
<linearGradient id="paint0_linear_127_464" x1="-4.86041e-07" y1="-9" x2="82" y2="65" gradientUnits="userSpaceOnUse">
<stop stop-color="#6F2DA8"/>
<stop offset="1" stop-color="#2C1242"/>
</linearGradient>
</defs>
</svg>
