<svg width="60" height="60" viewBox="0 0 60 60" fill="none" xmlns="http://www.w3.org/2000/svg">
<path d="M30 60C46.5685 60 60 46.5685 60 30C60 13.4315 46.5685 0 30 0C13.4315 0 0 13.4315 0 30C0 46.5685 13.4315 60 30 60Z" fill="white"/>
<path d="M40.0174 34.7733C38.5489 38.0476 35.9995 40.0683 32.5699 40.8888C26.3478 42.3792 20.3202 38.4963 19.0196 32.2098C18.5724 30.0495 18.7858 27.9079 19.6205 25.8496C19.6644 25.7413 19.7632 25.6566 19.8354 25.5609C19.8166 25.7696 19.8103 25.9814 19.7758 26.1885C19.1592 29.8816 22.7158 33.2327 26.3949 32.4498C28.1096 32.0859 29.258 31.0237 30.2998 29.6839C31.718 27.8593 33.6791 27.2114 35.9163 27.7432C38.072 28.2547 39.4353 29.6698 40.0346 31.827C40.2841 32.7228 40.0958 33.6155 40.1397 34.5082L40.1429 34.5019C39.975 34.5349 40.0095 34.6604 40.0189 34.7749L40.0174 34.7733Z" fill="#002395"/>
<path d="M40.1381 34.506C40.0926 33.6133 40.2808 32.7206 40.033 31.8248C39.4336 29.6676 38.0719 28.2525 35.9147 27.741C33.679 27.2092 31.7179 27.8571 30.2981 29.6817C29.2564 31.0216 28.1064 32.0837 26.3932 32.4477C22.7142 33.2305 19.1575 29.8794 19.7741 26.1863C19.8086 25.9792 19.8149 25.769 19.8337 25.5587C20.3044 23.9491 21.3461 22.7128 22.5761 21.6695C25.8252 18.913 29.5482 18.094 33.5896 19.4872C37.6781 20.896 40.1239 23.8628 40.9774 28.094C41.3947 30.1618 41.1359 32.1951 40.3687 34.1593C40.3201 34.2848 40.3138 34.4574 40.1381 34.506Z" fill="#D70228"/>
<path d="M17.6419 44.9937C17.4536 44.967 17.4113 44.8336 17.3438 44.7332C15.4078 41.8355 13.4765 38.9331 11.5343 36.0401C11.3805 35.8126 11.4103 35.7106 11.6268 35.5475C12.871 34.6124 12.8663 34.6061 13.7103 35.8738C15.411 38.4248 17.1022 40.9805 18.8217 43.5174C19.0853 43.9049 19.0931 44.1041 18.6632 44.3285C18.2946 44.5199 17.9635 44.7819 17.6403 44.9952L17.6419 44.9937Z" fill="black"/>
<path d="M14.404 13.0917C14.3475 13.178 14.2816 13.2831 14.211 13.3866C12.3111 16.2341 10.4049 19.0785 8.51916 21.9354C8.31364 22.2461 8.18656 22.2367 7.89788 22.0484C6.68514 21.2498 6.6773 21.2608 7.46331 20.0842C9.17652 17.5159 10.8991 14.9539 12.5951 12.3747C12.8383 12.0045 13.0155 11.9401 13.356 12.2241C13.6117 12.4375 13.9145 12.5975 14.1891 12.7905C14.2832 12.8564 14.4291 12.8956 14.404 13.0901V13.0917Z" fill="black"/>
<path d="M50.8552 22.6996C50.8756 22.8424 50.7689 22.8816 50.6921 22.9491C49.4825 24.0018 49.4511 23.9987 48.5615 22.6651C46.8593 20.1157 45.1649 17.5616 43.447 15.0231C43.1944 14.6497 43.1819 14.4756 43.5976 14.2152C44.7288 13.5045 44.7131 13.4825 45.4489 14.5854C47.1605 17.1537 48.8753 19.7203 50.5869 22.287C50.6795 22.4267 50.7705 22.5678 50.8568 22.6996H50.8552Z" fill="black"/>
<path d="M16.7337 14.6355C16.6584 14.7531 16.5815 14.8787 16.4999 15.001C14.6346 17.7952 12.7582 20.5799 10.9179 23.3898C10.6386 23.8165 10.4676 23.7804 10.1052 23.5294C9.0274 22.7826 9.01799 22.7983 9.73339 21.7237C11.4215 19.1915 13.1237 16.6687 14.7867 14.1193C15.1162 13.6157 15.3688 13.4259 15.8567 13.8965C16.0497 14.0832 16.3117 14.1962 16.5329 14.3562C16.6239 14.4221 16.7823 14.4551 16.7337 14.637V14.6355Z" fill="black"/>
<path d="M12.8066 25.3247C12.3532 25.0125 11.8763 24.7066 11.4276 24.363C11.3224 24.283 11.4856 24.1434 11.5499 24.0477C13.4812 21.1452 15.4203 18.246 17.3453 15.3388C17.5179 15.0784 17.6356 15.0847 17.885 15.2416C19.1621 16.0433 19.1668 16.0354 18.3228 17.3015C16.6331 19.8368 14.945 22.3721 13.249 24.9027C13.1423 25.0612 13.0984 25.3059 12.8082 25.3232L12.8066 25.3247Z" fill="black"/>
<path d="M14.4323 47.0426C14.3947 47.0991 14.3601 47.1713 14.3068 47.2215C14.2472 47.278 14.1687 47.3156 14.0997 47.3627C13.3174 47.9149 12.6616 47.7941 12.1323 47.0003C10.4348 44.4524 8.74514 41.8999 7.02879 39.3661C6.77149 38.9849 6.726 38.7998 7.16371 38.5221C8.27918 37.813 8.26506 37.7879 9.00557 38.8986C10.7172 41.4622 12.4273 44.0257 14.1389 46.5892C14.2315 46.7289 14.3209 46.8701 14.4323 47.0411V47.0426Z" fill="black"/>
<path d="M13.3796 40.4173C13.3969 40.5773 13.2824 40.6134 13.2071 40.6778C12.0147 41.7085 11.9598 41.6991 11.0859 40.3875C10.4804 39.4791 9.88419 38.5645 9.25821 37.6718C9.04641 37.3706 9.10603 37.2356 9.39156 37.0395C10.5823 36.2206 10.5761 36.2096 11.3683 37.4004C11.9614 38.2915 12.556 39.1826 13.149 40.0722C13.2306 40.1945 13.3106 40.3153 13.3796 40.4189V40.4173Z" fill="black"/>
<path d="M13.8514 41.3582C14.0475 41.3112 14.0789 41.468 14.1401 41.5606C14.9716 42.7969 15.7984 44.0379 16.6268 45.2773C16.6503 45.3118 16.6927 45.3541 16.6864 45.3855C16.5703 46.0021 15.9208 46.0225 15.5662 46.3771C15.4156 46.5277 15.243 46.6375 15.061 46.3614C14.2311 45.0984 13.387 43.8449 12.5508 42.5882C12.4865 42.4909 12.3657 42.3764 12.5179 42.2697C12.9634 41.956 13.4184 41.6563 13.8546 41.3614L13.8514 41.3582Z" fill="black"/>
<path d="M43.7448 20.2933C43.544 20.2729 43.5095 20.1317 43.4436 20.0344C42.6372 18.8326 41.8418 17.623 41.0307 16.4244C40.8722 16.1907 40.8518 16.073 41.1122 15.88C42.3438 14.9701 42.336 14.9591 43.1784 16.222C43.784 17.1304 44.3755 18.0466 45.003 18.9393C45.218 19.2453 45.1646 19.3865 44.8665 19.559C44.4712 19.7897 44.0978 20.0579 43.7448 20.2917V20.2933Z" fill="black"/>
<path d="M50.2747 17.0638C50.4944 17.0199 50.532 17.1721 50.5948 17.2646C51.4247 18.5025 52.2452 19.745 53.0799 20.9797C53.2242 21.1931 53.185 21.3155 52.9779 21.4253C52.9402 21.4441 52.9073 21.4708 52.8728 21.4959C52.0852 22.0534 51.4278 21.9362 50.9007 21.1445C50.2841 20.2188 49.6801 19.2853 49.0463 18.3707C48.8596 18.1008 48.869 17.9675 49.1593 17.8012C49.5578 17.5721 49.9296 17.296 50.2747 17.0654V17.0638Z" fill="black"/>
<path d="M48.5266 35.834C48.4764 35.9125 48.4231 36.0035 48.365 36.0898C47.5743 37.2758 46.771 38.4525 46.0007 39.6511C45.7983 39.9649 45.654 39.9539 45.3685 39.7703C44.1557 38.9875 44.151 38.9969 44.9417 37.8092C45.5583 36.8852 46.1843 35.969 46.7851 35.0355C46.9609 34.7625 47.1036 34.706 47.3688 34.9115C47.6669 35.1422 47.9932 35.3336 48.3007 35.5516C48.3964 35.6191 48.5391 35.6599 48.525 35.8356L48.5266 35.834Z" fill="black"/>
<path d="M44.5951 46.5251C44.1668 46.2364 43.6914 45.9321 43.2365 45.5979C43.1 45.4975 43.2616 45.372 43.3228 45.2794C44.1448 44.0384 44.9732 42.8006 45.8 41.5628C45.8235 41.5282 45.8408 41.4686 45.8706 41.4608C46.4903 41.3196 46.7523 41.9314 47.2214 42.115C47.4128 42.1903 47.5901 42.3095 47.4003 42.5888C46.5531 43.8392 45.7231 45.099 44.8838 46.3541C44.8289 46.4357 44.7834 46.5471 44.5967 46.5235L44.5951 46.5251Z" fill="black"/>
<path d="M49.8276 43.9704C49.7664 44.0645 49.7084 44.1524 49.6503 44.2387C48.8612 45.4232 48.0626 46.6014 47.2907 47.7953C47.1009 48.0887 46.977 48.1216 46.6726 47.9208C45.4536 47.1129 45.4442 47.1254 46.2537 45.9142C46.8577 45.009 47.4759 44.1132 48.0595 43.1938C48.254 42.8879 48.4015 42.8518 48.6808 43.0746C48.9741 43.3083 49.3052 43.495 49.6142 43.71C49.7052 43.7743 49.8574 43.8025 49.826 43.9688L49.8276 43.9704Z" fill="black"/>
<path d="M47.0005 11.9508C47.0978 12.07 47.1841 12.1579 47.2515 12.2583C48.0705 13.4773 48.8847 14.6979 49.7021 15.9185C49.7256 15.953 49.7696 15.9938 49.7649 16.0252C49.6519 16.6763 48.9537 16.6747 48.5992 17.0591C48.4125 17.2614 48.2634 17.1971 48.1128 16.9681C47.308 15.7396 46.489 14.5206 45.6764 13.2985C45.6105 13.1996 45.463 13.049 45.5524 12.98C46.0152 12.6223 46.5032 12.2991 47.0005 11.9508Z" fill="black"/>
<path d="M48.5283 24.2661C48.5581 24.4168 48.4294 24.4419 48.3604 24.5015C47.1618 25.5401 47.1069 25.5338 46.2314 24.2191C45.6258 23.3107 45.0375 22.3898 44.4084 21.4986C44.1919 21.1927 44.2578 21.0688 44.5371 20.8774C45.7325 20.0569 45.7278 20.0474 46.517 21.2288C47.1131 22.1184 47.7077 23.0095 48.3008 23.9006C48.3824 24.023 48.4561 24.15 48.5298 24.2677L48.5283 24.2661Z" fill="black"/>
<path d="M50.8909 37.3318C50.8078 37.4604 50.7419 37.5655 50.6728 37.6707C49.8931 38.8395 49.1008 40.0004 48.3431 41.1834C48.1297 41.516 47.9807 41.516 47.67 41.3089C46.4887 40.5244 46.4808 40.5354 47.2527 39.3792C47.8583 38.4724 48.4858 37.5797 49.06 36.6525C49.2907 36.2806 49.4711 36.2853 49.7754 36.527C50.0547 36.7466 50.3653 36.927 50.6587 37.1294C50.7419 37.1859 50.8109 37.2628 50.8909 37.3333V37.3318Z" fill="black"/>
<path d="M50.3372 43.0683C50.1097 42.9162 49.8666 42.7561 49.6234 42.5945C49.091 42.24 48.9964 41.8059 49.3394 41.2924C50.0266 40.2616 50.7232 39.2372 51.3931 38.1954C51.5892 37.8911 51.7194 37.8158 52.0583 38.0401C53.2569 38.8371 53.2679 38.823 52.4693 40.0185C51.8622 40.9268 51.2581 41.8352 50.6479 42.7404C50.5694 42.855 50.5318 43.0134 50.3388 43.0668L50.3372 43.0683Z" fill="black"/>
<path d="M42.2749 44.9839C41.8372 44.6812 41.3665 44.3689 40.9147 44.0332C40.8237 43.9657 40.9163 43.8418 40.9743 43.7555C41.8105 42.5004 42.5651 41.1794 43.5174 40.02C43.9912 39.4427 44.3474 40.3934 44.8149 40.5221C45.0047 40.5738 45.3201 40.6821 45.0644 41.0539C44.2234 42.2792 43.4076 43.5218 42.5824 44.758C42.5165 44.8569 42.471 44.9902 42.2765 44.9839H42.2749Z" fill="black"/>
<path d="M40.0172 34.773C40.0078 34.6585 39.9732 34.5329 40.1411 34.5C40.1678 34.6224 40.1678 34.7322 40.0172 34.773Z" fill="#E64C3D"/>
</svg>
